<svg xmlns="http://www.w3.org/2000/svg" width="394.956" height="43.884" viewBox="0 0 1080 120">
  <defs>
    <style>
      .cls-1 {
        fill-rule: evenodd;
      }
    </style>
  </defs>
  <path id="Berkeley_Library_1" data-name="Berkeley Library 1" class="cls-1" d="M53.182,43.372l2.907,0.869v0.29L58.705,45.4v0.29l1.163,0.29,0.291,0.579L61.9,47.138l0.291,0.579h0.581L63.065,48.3h0.581l0.581,0.869h0.581l2.035,2.318,1.163,0.869v0.579l0.872,0.579,0.291,1.159,0.581,0.29v0.869h0.291v0.579h0.291v0.869h0.291v0.869h0.291v1.159H71.2v1.449h0.291L71.2,68.286H70.913v1.159H70.623l-0.291,1.738H70.041L69.46,72.921H69.169L68.879,74.08l-0.581.29v0.579l-0.872.579v0.579l-0.581.29-1.453,1.738H64.809l-0.872,1.159H63.356l-0.291.579-1.744.579-0.291.579L53.182,83.64l-5.813.579v0.29H37.486V84.22H34.87V83.93H32.254V83.64H29.347v-0.29l-13.08.29c-0.548.047-.581,0.29-0.581,0.29a5.711,5.711,0,0,1-4.069-.579H11.325V81.613l0.581-.29c1.637-1.557,6.817.423,8.43-1.159,0.646-.742.291-3.354,0.291-4.635V14.981c-0.585-.665-0.221-1.713-0.581-2.607H19.755l-0.291-1.159H19.174V10.635A15.347,15.347,0,0,0,17.43,9.476H13.651L9.291,8.9A5.537,5.537,0,0,1,9,6.869c4.184-.768,9.846-0.29,14.534-0.29h5.232V6.29L39.23,6C45.7,6,50.655,5.944,55.217,7.738l1.744,0.29v0.29l1.163,0.29V8.9l1.744,0.579v0.29l0.872,0.29,0.291,0.58h0.581l1.744,2.028,1.453,1.159a16.157,16.157,0,0,1,2.907,9.56v3.476l-1.744,5.215-0.581.29L65.1,33.522l-0.872.579v0.579L61.9,36.709,60.74,38.157H60.158l-0.581.869H59l-0.291.579-0.872.29v0.29H57.252l-0.291.579-0.872.29v0.29H55.508v0.29H54.926l-0.291.579H54.054V42.5C53.25,43.007,53.536,42.231,53.182,43.372ZM270.024,83.061c-3.476.629-8.246,0.29-12.208,0.29-4.055,0-8.933.353-12.5-.29V81.323l1.162-.29v-0.29h2.326a14.843,14.843,0,0,0,5.232-.579c0.591-1.618.291-4.557,0.291-6.663V13.532h-0.291V12.663h-0.291v-0.29a3.108,3.108,0,0,1-.581-0.579h-0.581V11.5l-6.1-.29a3.848,3.848,0,0,0-.872-1.159L245.9,8.9l10.174-1.159L262.466,6l0.291,0.579c0.639,0.655.564,3.587,0.291,5.215-0.673,4.011-.291,9.4-0.291,13.906q-0.145,17.67-.291,35.344V62.2h-0.29V76.4h0.29v2.028h0.291l0.291,1.449a2.748,2.748,0,0,1,.581.579h0.581v0.29c1.815,0.683,4.219-.717,5.523.579,0.3,0.223.286,0.356,0.582,0.579ZM170.905,6.29c0.185,3.35,0,8.768,0,13.037,0,2.234.218,5.2-.291,6.953q-0.291,18.974-.581,37.951a3.7,3.7,0,0,0,1.453.29c0.513-.575.567-0.245,1.163-0.579v-0.29h0.581l0.291-.579H174.1l0.291-.579h0.581l0.581-.869h0.582l0.581-.869H177.3l0.291-.579,0.872-.29,0.872-1.159h0.581l1.163-1.449h0.581l1.454-1.738h0.581l1.454-1.738,0.872-.29,2.325-2.607c2.516-2.508,5.259-3.868,5.232-8.981A3.017,3.017,0,0,1,193,41.344h-0.582v-0.29h-5.232a0.662,0.662,0,0,0-.581-0.29,4.529,4.529,0,0,1-.291-1.738H186.6v-0.29l2.035-.29v0.29h3.488v0.29h1.744c1.752-.467,4.487-0.105,6.685-0.29,0.615-.052,1.176-0.585,2.035-0.29v0.29l0.872,0.29L202.3,41.344l-0.872.579V42.5l-0.872.579v0.579L198.518,45.4v0.579l-1.453,1.159-2.325,2.607h-0.582l-2.034,2.318h-0.582l-0.581.869-0.872.579V53.8h-0.581l-0.582.869h-0.29l-0.291.579h-0.581l-0.872,1.159-0.872.29-1.163,1.449-1.163.869c-0.158.554,0.179,0.4,0.291,0.579a4.809,4.809,0,0,0,1.163,2.028l0.581,0.29v0.579l1.453,1.159V64.23l1.454,1.159v0.579l1.453,1.159v0.579l0.872,0.579v0.29l0.581,0.29v0.579l1.744,1.449v0.579l1.163,0.869v0.579l1.163,0.869V74.37l1.162,0.869v0.579l1.744,1.449v0.579l0.582,0.29,0.872,1.159h0.581l0.872,1.159,1.163,0.29v0.29l3.779,0.29v0.29l1.453,0.29a3.675,3.675,0,0,1,.291,1.449,0.507,0.507,0,0,0-.291.29,50.036,50.036,0,0,1-5.232.29l-2.326-.29v0.29c-1.823.491-5.2-.152-6.685-0.29L192.124,81.9h-0.291V81.323l-0.872-.579V80.164l-0.872-.579V79.005l-1.163-.869V77.557L187.473,76.4V75.818l-1.744-1.448-0.291-.869-0.872-.579V72.342l-1.163-.869V70.894l-1.162-.869-0.291-.869-0.581-.29V68.286l-0.872-.579V67.127l-0.872-.579V65.969l-1.163-.869c-0.642-.881-0.327-1.268-1.744-1.449-0.824.967-2.1,1.307-3.2,2.028l-0.291.579-1.163.29q-0.146.29-.29,0.579H171.2v0.29L170.323,68v0.58h-0.29a65.9,65.9,0,0,0,.581,11.588l1.453,0.29v0.29c2.184,0.694,5.834-.855,7.267.579h0.291v0.869c0.088,0.4.236-.116,0.29,0.29h-0.29l-0.291.869h-25a2.407,2.407,0,0,1-.581-1.738,2.425,2.425,0,0,1,1.744-.579v-0.29h5.232a0.65,0.65,0,0,1,.581-0.29c0.465-1.244.3-3.511,0.291-5.215,0.616-.7.291-3.118,0.291-4.346V30.915c0.042-3.448.946-9.1,0-12.457V14.4c-0.219-.722-0.695-1.5-0.872-2.318a1.114,1.114,0,0,1-.872-0.579h-3.488l-3.2-.579a3.66,3.66,0,0,1-.29-1.449c0.331-.33.115,0,0.29-0.579a15.989,15.989,0,0,1,4.651-.29c0.843-.716,3.361-0.2,4.651-0.579V7.738l2.906-.29A16.482,16.482,0,0,1,170.905,6.29ZM461.868,8.9l6.976-.579V8.028H470.3V7.738h1.454V7.449h1.162V7.159h1.454V6.869l4.36-.579a5.542,5.542,0,0,1,.29,2.028h-0.29v1.738c-0.66,2.232-.582,5.193-0.582,8.112q-0.145,8.98-.29,17.962a52.167,52.167,0,0,0,.29,8.112,4.574,4.574,0,0,0,1.744.29c0.457-.521.566-0.254,1.163-0.579v-0.29h0.581v-0.29h0.582l0.581-.579h0.581l0.291-.579h0.581l0.582-.579h0.581v-0.29h0.582v-0.29h0.581v-0.29l1.744-.579V39.9h0.872v-0.29h0.581v-0.29l2.616-.579v-0.29h1.744v-0.29h1.744v0.29H498.2v0.29h1.162v0.29h0.872v0.29h0.872v0.29l1.744,0.58v0.29l1.163,0.29,0.582,0.869h0.581l1.163,1.449,2.616,2.318v0.579l0.581,0.29v0.579l0.581,0.29L510.41,48.3l0.581,0.29,0.291,1.449h0.291q0.146,0.579.29,1.159h0.291q0.437,1.883.872,3.766h0.291v1.159h0.29v1.738H513.9v2.9a5.543,5.543,0,0,1,.291,2.607H513.9v2.607q-0.726,2.607-1.453,5.215h-0.291q-0.291.869-.581,1.738h-0.291l-0.291,1.159-0.581.29v0.579l-0.581.29v0.579l-0.872.579v0.579l-1.744,1.449-1.454,1.738h-0.581l-0.581.869-1.163.29-0.291.579h-0.581v0.29H501.98v0.29h-0.872v0.29h-0.581v0.29h-0.872v0.29h-0.872v0.29h-0.872v0.29h-1.453v0.29c-1,.3-7.4.668-8.72,0.29V84.22h-1.744V83.93h-1.163V83.64h-1.163v-0.29h-1.163v-0.29h-0.872v-0.29h-0.872c-2.035-.8-3.631-1.962-6.394-2.028q-0.873,1.159-1.744,2.318c-0.885,1.916.358,3.741-2.616,3.766-0.729-1.964-.306-5.627-0.291-8.112,0.616-.7.29-3.117,0.291-4.346V31.2c0-6.022.369-13.142-.582-18.251l-0.872-.579v-0.29h-0.581v-0.29h-2.616V11.5c-1.149-.325-2.742.37-3.488-0.29h-0.291V9.476C461.908,9.146,461.693,9.475,461.868,8.9ZM435.707,74.66L436,75.818h-0.291l-0.291,1.449h-0.29v0.579l-0.582.29q-0.435,1.3-.872,2.607h-0.29v0.579h-0.291v0.869H432.8c-0.346.826,0.072,0.87-.581,1.448v0.29h-13.08c-0.567-.491-2.167-0.289-3.2-0.29H407.8c-10.73,0-22.767.193-32.556,0a2.528,2.528,0,0,1-.581-2.028c0.854-.495.832-0.837,2.325-0.869,1.932-1.585,6.751,1.719,6.976-2.318,0.68-.77.291-3.6,0.291-4.925V60.175l0.291-27.232c0-3.779.6-9.585-.291-12.747V15.271h-0.291V13.243h-0.29V12.084h-0.291V11.5H383.1V10.925l-0.872-.58v-0.29h-6.1V9.766l-1.453-.29a3.675,3.675,0,0,1-.291-1.449c0.331-.33.116,0,0.291-0.579,0.585-.106.581-0.29,0.581-0.29H376.7V6.869c1.023-.289,1.915.23,2.616,0.29h20.928l5.232-.29v0.29h2.907a5.54,5.54,0,0,1,.291,2.028l-0.872.29c-0.833.758-3.038,0.578-4.651,0.579a36.071,36.071,0,0,0-7.267.869,5.528,5.528,0,0,1-.872.869V56.408c-0.606.665-.291,5-0.291,6.374L395.3,75.529h0.29v1.159a5.445,5.445,0,0,0,2.035,3.187c1.092,1.1,8.357.579,10.755,0.579,5.922,0,12.09-.23,16.568-1.738l2.326-.29,5.522-2.318v-0.29h0.582v-0.29A7.7,7.7,0,0,1,435.707,74.66ZM31.963,10.346c-0.556,3.115-.291,7.418-0.291,11.009v19.99l0.872,0.29c0.666,0.586,2.892.29,4.069,0.29l9.883,0.29V42.5c1.015,0.283,2.183-.009,2.907.29V42.5a15.575,15.575,0,0,0,7.267-8.981q0.145-2.173.291-4.346h0.291l-0.291-4.635H56.67V23.382H56.38l-0.291-2.028H55.8V20.775H55.508V19.906H55.217l-0.291-1.159H54.636l-0.291-1.159-0.581-.29V16.719l-0.581-.29V15.85l-0.872-.579V14.691l-1.163-.869-1.163-1.448H49.4l-0.291-.579H48.531c-2.6-1.709-4.009-2.605-8.429-2.607H35.161v0.29H33.707v0.29H32.835v0.29Zm420.313,8.112a11.715,11.715,0,0,1,2.616.29,3.391,3.391,0,0,1,.581,1.159h0.291c0.416,0.7-.423,3.464-0.582,3.766h-0.29v0.579H454.6v0.579H454.31a2.178,2.178,0,0,1-1.453,1.159c-0.948,1.021-3.717.334-4.07-1.159H448.5V22.8h0.29V21.934h0.291l0.291-1.159,1.453-1.159,0.291-.579C451.605,18.7,451.765,19.02,452.276,18.457ZM93.3,37.578h5.523v0.29l2.325,0.29v0.29l1.744,0.29v0.29l1.454,0.29v0.29L105.5,39.9v0.29l1.163,0.29v0.29l0.872,0.29,0.291,0.579h0.581l0.291,0.579h0.581l0.581,0.869h0.582L111.9,44.82l1.453,1.159v0.579l1.163,0.869v0.579c0.791,1.164,1.852,1.893,2.035,3.766l-0.872.29v0.29l-2.035.29v0.29h-1.453v0.29h-1.163v0.29h-1.453V53.8h-1.454c-2.967.923-6.813,1.142-9.883,2.028H95.911v0.29H93.586v0.29H90.97V56.7h-3.2v0.29h-3.2v0.29H83.994l-0.291.869c-0.532.593-.34,2.676-0.291,3.766l0.872,5.215h0.291V68h0.291v0.58h0.291l0.291,1.448,0.581,0.29,0.291,1.159,0.581,0.29v0.579l1.163,0.869,1.744,2.028h0.581l0.291,0.579H91.26L91.551,76.4l1.163,0.29v0.29l1.744,0.579v0.29H95.33v0.29H96.2v0.29h1.163v0.29h1.163v0.29h1.744v0.29a20.755,20.755,0,0,0,6.686-.29h2.034l6.976-2.318a3.374,3.374,0,0,1,.582,1.159h-0.291c-0.792,1.317-2.492,1.761-3.779,2.607-4.256,2.8-12.626,6.44-20.056,4.056L90.1,84.22c-6.325-2.259-10.954-6.3-13.371-12.457V70.6H76.436V69.735H76.145V68.286H75.855V66.548H75.564c-0.4-1.392,0-7.391.291-8.4V56.408c2.009-6.676,3.9-11.163,9.011-14.775l0.581-.869h0.581l0.291-.579,4.651-2.028C91.744,37.858,92.731,38.076,93.3,37.578Zm129.059,0h5.522v0.29l2.326,0.29v0.29l1.744,0.29v0.29l1.453,0.29v0.29l1.163,0.29v0.29h0.581l0.291,0.579,1.163,0.29v0.29l0.872,0.29q0.144,0.29.29,0.579h0.582l0.872,1.159h0.581l1.744,2.028,0.581,0.29v0.579l1.163,0.869v0.579l0.872,0.579a9.337,9.337,0,0,1,1.453,3.477l-0.872.29c-0.66.586-1.385,0.261-2.325,0.579v0.29h-1.163v0.29h-1.162v0.29h-1.454V53.8h-1.453c-3.673,1.142-8.382,1.221-12.208,2.318h-2.326v0.29h-2.616V56.7h-3.2v0.29h-3.2v0.29h-0.581l-0.291.869c-0.525.586-.3,2.41-0.29,3.476a16.735,16.735,0,0,0,2.034,7.822L214.8,70.6l0.581,0.29v0.579l0.582,0.29v0.579l1.162,0.869,1.745,2.028h0.581l0.581,0.869,1.163,0.29v0.29h0.581v0.29l1.744,0.579v0.29l2.616,0.579v0.29l3.2,0.29c1.027,0.29,5.249.7,6.685,0.29v-0.29h1.744v-0.29h1.454v-0.29h1.162c1.538-.549,2.768-1.525,4.651-1.738a3.676,3.676,0,0,1,.291,1.449l-1.163.579-0.291.579h-0.581l-0.291.579H242.41l-0.291.579-1.162.29-0.291.579-1.163.29V81.9l-1.744.579v0.29h-0.872v0.29h-0.581v0.29h-0.872v0.29h-0.872v0.29H233.69v0.29h-0.872v0.29l-2.616.29v0.29h-2.616a23.371,23.371,0,0,1-9.3-1.448L214.8,82.482l-0.291-.579-1.162-.29-0.582-.869H212.18l-1.163-1.448c-2.819-2.1-4.59-5.623-5.813-9.27V68.576h-0.291V67.127h-0.29V63.941h-0.291l0.291-6.084h0.29V56.119l2.035-6.373h0.291V49.166l0.581-.29q0.291-.869.581-1.738l0.582-.29V46.269l4.36-4.635h0.581l0.581-.869h0.582q0.146-.29.29-0.579l4.651-2.028C220.8,37.858,221.79,38.076,222.354,37.578Zm54.355,19.7c-0.218,1.1-1.017,2.515-.581,4.056h0.291v2.9h0.29v1.448H277v1.159h0.291v0.869h0.29v0.869h0.291v0.579h0.291q0.289,0.869.581,1.738l0.581,0.29v0.579l0.872,0.579v0.579l0.582,0.29,1.162,1.448h0.582l0.872,1.159,1.162,0.29,0.291,0.579h0.581v0.29l1.163,0.29v0.29h0.872v0.29h0.582v0.29l2.034,0.29v0.29h1.163c1.232,0.387,6.534,1.121,8.429.579v-0.29l3.489-.29v-0.29h0.872v-0.29H304.9v-0.29h0.872v-0.29h0.872c0.807-.353.724-0.712,2.034-0.869a3.374,3.374,0,0,1,.582,1.159h-0.291c-0.751,1.28-1.985,1.52-3.2,2.318l-0.291.579-1.163.29v0.29h-0.581v0.29l-1.163.29a22.7,22.7,0,0,1-11.336,3.187h-4.069V84.8l-3.2-.29V84.22H283.1V83.93h-0.872V83.64H281.36v-0.29h-0.872v-0.29h-0.581v-0.29l-1.744-.579-0.291-.579h-0.581a22.349,22.349,0,0,1-3.2-2.9l-1.162-.869V77.267l-0.872-.579V76.108l-0.582-.29q-0.145-.579-0.29-1.159H270.9q-0.291-.869-0.581-1.738h-0.291q-0.291-1.3-.581-2.607h-0.291V69.155h-0.291V68h-0.29l-0.291-8.981q0.872-3.766,1.744-7.532h0.291q0.144-.579.29-1.159H270.9V49.745h0.291V49.166h0.29V48.586l0.582-.579V47.428l0.581-.29V46.558l0.581-.29V45.689l1.163-.869V44.241l1.744-1.449,0.291-.579H277l0.872-1.159h0.581l0.291-.579h0.581l0.291-.579,2.616-.869v-0.29h0.581v-0.29l2.035-.29c6.882-2.275,14.159,1.867,18.022,4.635L305.2,45.4a22.371,22.371,0,0,1,2.907,3.187v0.579l0.581,0.29a4.324,4.324,0,0,1,.582,2.318l-0.872.29c-0.651.615-3.609,1.108-4.651,1.448h-1.163V53.8h-1.453c-3.7,1.15-8.37,1.218-12.208,2.318h-2.326v0.29h-2.907V56.7h-3.2v0.29h-3.2v0.29h-0.582ZM464.484,83.061c-0.617.111-1.822,0.446-2.326,0.579-0.912.242-1.377-.234-2.034-0.29H444.137l-3.488.29v-0.29H439.2a2.528,2.528,0,0,1-.581-2.028c1.77-.917,5.46-0.6,8.139-0.579,1.189-2.314.581-7.416,0.581-10.719V45.4q-0.58-1.738-1.163-3.476c-0.925-1.313-5.151-.854-6.976-1.159a4.512,4.512,0,0,1-.29-1.738h0.29v-0.29h1.454v-0.29H451.4v-0.29h1.745v-0.29c0.88-.253,1.617.016,2.325-0.29v0.29c0.628,0.411.584,0.685,0.581,1.738h0.291v2.028c-0.619,2.266-.291,5.929-0.291,8.691q-0.145,12.6-.29,25.2h0.29v2.318h0.291l0.291,1.738a6.144,6.144,0,0,1,.872.869h4.65v0.29H463.9A3.723,3.723,0,0,1,464.484,83.061ZM135.443,44.531a6.652,6.652,0,0,0,2.906-1.159l0.582-.869h0.581l0.291-.579h0.581l0.291-.579,0.872-.29v-0.29h0.581v-0.29l1.744-.579v-0.29l1.744-.29v-0.29h1.163v-0.29h1.744v0.29h1.162v0.29h0.582v0.29h0.872V39.9h0.581l0.291,0.579h0.581l2.326,2.607a8.035,8.035,0,0,1-1.163,4.635v0.869h-0.291a4.419,4.419,0,0,1-.581,1.449H151.72a14.481,14.481,0,0,0-4.651-4.056h-1.162c-3.875-1.226-8.5.638-9.883,2.9-0.837,1.363-.581,3.943-0.581,6.084V68c0,3.227-.763,11.013,1.162,12.168,1.186,1.129,6,.337,7.848.869h2.035v0.29h0.291v1.738c-1.9.7-5.434,0.3-7.848,0.29-0.959-.842-4.256-0.155-5.814-0.29-0.545-.047-0.581-0.29-0.581-0.29-1.152-.317-2.407.222-3.2,0.29l-9.592.29a5.542,5.542,0,0,1-.29-2.028,0.508,0.508,0,0,0,.29-0.29l6.686-.29c1.219-2.374.581-7.637,0.581-11.009V44.241h-0.291V42.792a6.36,6.36,0,0,1-1.453-1.159l-6.1-.29a6.52,6.52,0,0,1,0-2.607l3.488-.29c1.077,0.3,7.271.7,8.72,0.29a14.449,14.449,0,0,1,3.488-.579C135.658,39.678,135.465,42.181,135.443,44.531ZM591.217,79.295v0.869l-2.907,2.607q-0.145.29-.29,0.579h-0.582l-0.581.869h-0.582v0.29a3.426,3.426,0,0,0-.872.579,8.314,8.314,0,0,1-4.069-1.159l-0.872-1.159h-0.581l-1.454-1.738-0.581-.29V80.164l-0.872-.579V79.005l-0.872-.579c-0.685-.957-0.178-1.223-1.744-1.449-0.514.785-1.264,0.906-2.035,1.449l-0.581.869h-0.581l-0.582.869H570l-0.291.579h-0.581l-0.291.579-1.163.29q-0.144.29-.29,0.579H566.8v0.29l-1.162.29v0.29h-0.872v0.29h-0.582v0.29l-1.744.29v0.29h-1.162c-0.834.268-3.013,0.96-4.36,0.579V84.51l-2.616-.29V83.93l-1.745-.579q-0.871-1.159-1.744-2.318V80.164h-0.29l-0.291-4.346h0.291V73.791h0.29V72.632H551.1V71.763H551.4V71.183h0.29V70.314l0.582-.29q0.145-.579.29-1.159l0.873-.579V67.707l1.162-.869,1.744-2.028h0.582q0.144-.29.29-0.579l0.872-.29v-0.29l1.744-.579v-0.29h0.582v-0.29l1.744-.579v-0.29h0.872v-0.29H563.6v-0.29l1.744-.29v-0.29h0.872v-0.29h0.872v-0.29h0.872V59.6h0.872v-0.29h0.872v-0.29l2.035-.29v-0.29l2.035-.29q0.144-.29.29-0.579l0.582-.29V47.138q-0.437-1.3-.872-2.607h-0.291l-1.163-1.449c-0.487-.335-0.66,0-1.162-0.579-2.058-.124-4.95-0.592-6.977,0H562.44a37.29,37.29,0,0,1-3.488,1.448c0.1,3.462-1.234,8.348-3.778,8.981v0.29h-2.035a4.011,4.011,0,0,1-.872-3.187h0.29l0.291-1.738h0.291l0.291-1.159h0.29V46.558l0.582-.29V45.689l0.872-.579V44.531l2.034-1.738,0.291-.579h0.581l0.582-.869h0.581l0.291-.579h0.581v-0.29l1.744-.579v-0.29l2.616-.579v-0.29l3.779-.29v-0.29a6.434,6.434,0,0,1,2.907.29h2.616v0.29h1.162v0.29l2.616,0.579,3.488,2.607v0.579l0.582,0.29q0.145,0.579.29,1.159h0.291V44.82H582.5c0.692,1.742.291,4.746,0.29,6.953V67.127c0,2.132-.376,4.987.291,6.663h0.291q0.291,0.869.581,1.738l0.581,0.29A13.551,13.551,0,0,0,591.217,79.295ZM325.252,41.923l-0.291,1.159H324.67a5,5,0,0,0,.291,2.607q0.291,1.448.581,2.9h0.291l0.291,1.159h0.29v0.869h0.291v0.579H327q0.146,0.579.29,1.159h0.291v0.869h0.291V53.8h0.29l0.291,1.159h0.291v0.869h0.29l0.291,1.159h0.291v0.869h0.29l0.291,1.159h0.291v0.869h0.29l0.291,1.159h0.291v0.869h0.29v0.579h0.291l0.291,1.449h0.29V64.81h0.291v0.579H333.1v0.869h0.29v0.579h0.291v0.869h0.291v0.579h0.29v0.869h0.291l0.582,1.738h0.29v0.579h0.291a2.473,2.473,0,0,1,.581,1.159h0.872v-0.29h0.291v-0.29h0.291V71.473h0.29V70.894h0.291V70.314h0.291V69.445h0.29V68.576H339.2V68H339.5V67.127h0.29l0.291-1.738h0.291V64.52h0.29V63.651h0.291V62.782h0.291V61.913h0.29V61.044h0.291l0.291-1.738h0.29l0.291-1.738h0.291q0.289-1.3.581-2.607h0.291V54.091h0.29V53.222h0.291V52.353h0.291V51.483h0.29V50.614h0.291q0.291-1.448.581-2.9h0.291V46.558h0.291V42.213a2.767,2.767,0,0,1-.582-0.579h-0.581v-0.29c-1.777-.669-4.727.713-6.1-0.579h-0.291V39.316c0.331-.33.116,0,0.291-0.579h1.163v-0.29l7.848,0.29h4.069v-0.29h5.232a5.519,5.519,0,0,1,.291,2.028,16.922,16.922,0,0,1-3.779,1.159q-0.435.724-.872,1.449h-0.291v0.579l-0.581.579V44.82h-0.291V45.4l-0.581.29-0.291,1.448h-0.29v0.579H350.54V48.3h-0.291q-0.29.869-.581,1.738h-0.291V50.9h-0.29L348.8,52.063h-0.291v0.869h-0.29l-0.291,1.159h-0.291V54.96h-0.29v0.579h-0.291v0.869h-0.291q-0.146.579-.29,1.159H346.18v0.869h-0.291v0.58H345.6l-0.291,1.448h-0.291v0.869h-0.29v0.579h-0.291v0.869h-0.291v0.579h-0.29V64.23c-4.689,10.353-8.686,21.511-13.953,31.288V96.1h-0.29v0.579h-0.291v0.579H329.03v0.579h-0.29v0.579h-0.291q-0.291.869-.581,1.738h-0.291q-0.291.87-.581,1.739h-0.291l-0.291,1.159h-0.29l-0.291,1.158h-0.291v0.58h-0.29v0.579h-0.291v0.58H324.67v0.579h-0.29v0.579h-0.291v0.58H323.8v0.579h-0.29v0.58h-0.291v0.579h-0.291V110h-0.29l-0.291.58h-0.581l-0.291.579H320.31c-0.769.708-1.994,0.229-3.2,0.58-1.531.446-6.2,2.212-7.848,0.579h-0.291v-0.869l3.2-1.159V110h0.582v-0.289h0.581l0.291-.58,1.162-.289,0.872-1.159h0.582l0.872-1.159h0.29v-0.579l1.163-.87V104.5l0.872-.579v-0.58l1.163-.869v-0.579l0.581-.29v-0.579l0.872-.58,0.291-.869,0.581-.29V98.705l0.582-.29V97.836l0.872-.579V96.677l0.581-.29,0.291-.869h0.29V94.939l0.582-.29V94.07l0.581-.29V93.2l0.581-.29V92.332l0.582-.29q0.145-.579.29-1.159l0.582-.29q0.145-.579.29-1.159l0.582-.29V88.565l0.581-.579v-0.58h0.291V86.827c0.3-.566,1.239-1.7.872-2.9h-0.291V83.061h-0.291V82.482h-0.29l-0.291-1.738H329.9q-0.144-.724-0.29-1.448h-0.291l-0.291-1.159h-0.29V77.267h-0.291V76.688h-0.291q-0.146-.724-0.29-1.448h-0.291V74.37h-0.291q-0.145-.579-0.29-1.159h-0.291V72.342h-0.291q-0.145-.579-0.29-1.159h-0.291l-0.291-1.448h-0.29V68.866h-0.291l-0.291-1.159h-0.29V66.838h-0.291L323.8,65.679h-0.29V64.81h-0.291l-0.291-1.159h-0.29V62.782h-0.291l-0.291-1.159h-0.29V60.754h-0.291L321.182,59.6h-0.29V58.726H320.6V58.147H320.31V57.277h-0.29l-0.291-1.159h-0.291V55.25h-0.291q-0.144-.579-0.29-1.159h-0.291V53.222h-0.291q-0.144-.579-0.29-1.159h-0.291V51.194H317.4q-0.144-.579-0.29-1.159h-0.291V49.166h-0.291q-0.144-.579-0.29-1.159H315.95V47.138h-0.291q-0.144-.579-0.29-1.159h-0.291V45.4h-0.291V44.82H314.5V44.241l-0.582-.579V43.082l-0.581-.29-0.291-.869h-0.581c-0.706-.721-2.327-0.611-3.779-0.579a3.6,3.6,0,0,1,0-2.028l0.872-.29c0.485-.424,4.992-0.475,6.1-0.29,2.131,0.355,4.113,0,6.686,0h4.069v-0.29l3.779,0.29a3.73,3.73,0,0,1,.581,2.318h-0.29v0.29A22.94,22.94,0,0,0,325.252,41.923Zm204.633,2.607a4.423,4.423,0,0,0,2.616-.869l0.581-.869h0.582q0.145-.29.29-0.579h0.582q0.146-.29.29-0.579h0.582q0.145-.29.29-0.579l1.163-.29,0.291-.579h0.872V39.9h0.581v-0.29h0.872v-0.29a9.991,9.991,0,0,1,4.942,0v0.29h0.872l3.2,2.318V42.5h0.291a3.524,3.524,0,0,0,.581.869c0.059,2.219-.8,3.486-1.453,4.925l-0.291,1.449h-0.291a0.983,0.983,0,0,1-.872.579c-0.447-.716-0.817-0.439-1.162-0.869v-0.58l-0.582-.29-0.581-.869h-0.581l-0.582-.869-1.162-.29v-0.29h-0.582v-0.29h-1.453a12.391,12.391,0,0,0-7.267.869l-0.291.579h-0.581l-0.581.579v0.579l-0.582.29c-0.649,1.056-.2,2.1-0.581,3.477h-0.291V67.127c0,3.632-.679,11.757,1.454,13.037v0.29h0.872v0.29h3.2l5.814,0.29a9.955,9.955,0,0,1,.29,2.028c-1.679.621-4.8,0.3-6.976,0.29-1.118-.983-4.16.165-5.813-0.29v-0.29H523.2v0.29l-9.011.29a5.518,5.518,0,0,1-.291-2.028h0.291v-0.29c1.958-.086,4.34-0.283,6.685-0.29,1.219-2.374.582-7.637,0.582-11.009V44.241c-0.659-.731-0.128-1.347-1.163-2.028-1.3-1.243-5.2.169-6.395-.869h-0.291V39.026c1.971-.727,5.646-0.3,8.139-0.29a4.086,4.086,0,0,0,2.616.29,21.084,21.084,0,0,1,5.232-.579,14.7,14.7,0,0,1,.291,4.346h-0.291Zm79.063,0h1.163c0.6-.94,1.68-1.118,2.616-1.738l0.29-.579H613.6l0.29-.579h0.582q0.145-.29.29-0.579l1.163-.29,0.291-.579,1.453-.29v-0.29h0.581v-0.29h1.163v-0.29a10.5,10.5,0,0,1,4.07.29v0.29h0.581V39.9l1.744,0.579,0.581,0.869h0.582l0.581,0.579V42.5l0.581,0.29,0.291,2.028h-0.291q-0.145,1.014-.29,2.028h-0.291v0.869H627.26V48.3h-0.29c-0.344.65-.582,1.4-0.872,2.028-0.585-.166-0.252.035-0.582-0.29-1.027-.289-2.419-1.882-3.2-2.607l-0.291-.579-3.2-1.159a7.078,7.078,0,0,0-3.2.29h-1.744v0.29h-1.162l-2.616,1.738c-1.63,2.228-1.454,5.964-1.454,9.85,0,7.2-.589,15.764.582,22.018l0.872,0.29v0.29h0.872v0.29h2.906l5.814,0.29a2.407,2.407,0,0,1,.581,1.738c-0.331.33-.116,0-0.291,0.579l-17.731-.579v0.29l-9.01.29a5.518,5.518,0,0,1-.291-2.028h0.291v-0.29c1.888-.168,4.382-0.287,6.685-0.29,1.219-2.374.581-7.637,0.581-11.009v-25.2h-0.29V43.082c-0.009-.027-0.181.054-0.291-0.579l-0.872-.29v-0.29h-0.581v-0.29c-1.891-.688-5.207,1.09-5.814-0.869h-0.29c-0.264-.5.5-1.984,0.581-2.028h7.848a4.086,4.086,0,0,0,2.616.29,21.084,21.084,0,0,1,5.232-.579,12.426,12.426,0,0,1,.291,3.766C608.359,42.829,608.8,43.817,608.948,44.531Zm34.881,65.763-0.872.29v0.289h-0.872v0.29l-3.2.29c-1.193.362-5.01,1.932-6.685,1.448v-0.289l-1.744-.29-0.291-.869a38.288,38.288,0,0,0,7.267-3.766V107.4l1.163-.869v-0.579l1.162-.87V104.5l1.163-.869v-0.579l0.872-.58v-0.579l0.872-.58v-0.579l0.872-.58V99.574l0.581-.29V98.705l0.872-.579V97.546l0.582-.29c0.1-.29.193-0.579,0.29-0.869h0.291V95.808l0.872-.579V94.649l0.581-.29V93.78l0.582-.29q0.145-.579.29-1.159l0.582-.29q0.145-.435.29-0.869h0.291l0.291-1.159,0.581-.29V89.145l0.581-.579V87.986h0.291v-0.58h0.291V86.827c0.352-.673,1.314-1.792.872-3.187h-0.291V82.771h-0.291V82.192h-0.29V81.323h-0.291V80.743H651.1q-0.144-.724-0.29-1.448h-0.291V78.426h-0.291V77.846h-0.29V76.977h-0.291V76.4h-0.291V75.529h-0.29L648.77,74.37h-0.291V73.5h-0.29L647.9,72.342h-0.291q-0.145-.724-0.29-1.448h-0.291V70.024h-0.291q-0.145-.579-0.29-1.159h-0.291V68h-0.291q-0.146-.579-0.29-1.159h-0.291V65.969h-0.291q-0.145-.579-0.29-1.159H644.41V63.941h-0.291V63.361h-0.29V62.492h-0.291l-0.291-1.159h-0.29V60.464h-0.291l-0.291-1.159h-0.29V58.436h-0.291L641.5,57.277h-0.29V56.408h-0.291l-0.291-1.159h-0.29V54.38H640.05l-0.291-1.159h-0.29V52.353h-0.291l-0.291-1.159H638.6V50.325h-0.291V49.745h-0.291V48.876h-0.29l-0.291-1.159h-0.291V46.848h-0.29V46.269h-0.291V45.689h-0.291V45.11H635.98V44.531h-0.29c-0.622-1.145-.612-2.23-2.035-2.607-1.68-1.356-3.73,1.352-3.779-2.318l0.582-.29c0.511-.506,3.361-0.943,4.65-0.579,4.713,1.33,11.537-.641,16.569.29a5.542,5.542,0,0,1,.29,2.028l-0.872.29v0.29h-3.778a0.649,0.649,0,0,1-.582.29c-0.1.29-.193,0.579-0.29,0.869-0.809.843-.218,4.352,0.29,5.5h0.291v0.579h0.291v0.869h0.29L647.9,50.9h0.291v0.869h0.29l0.291,1.159h0.291v0.579h0.29V54.38h0.291l0.291,1.159h0.29v0.869h0.291v0.579H650.8q0.146,0.579.29,1.159h0.291v0.869h0.291V59.6h0.29v0.869h0.291l0.291,1.159h0.29v0.869h0.291v0.579h0.291q0.145,0.724.29,1.448H654v0.869h0.291v0.579h0.291v0.869h0.29v0.579h0.291v0.869h0.291v0.579h0.29v0.869h0.291v0.579l0.581,0.29c0.718,1.122.189,1.816,2.035,2.028l0.291-.869h0.29V70.894h0.291l0.291-1.159h0.29V68.866H660.4l0.291-1.738h0.29l0.291-1.738h0.291V64.52h0.29V63.651h0.291V62.782h0.291V61.913h0.29V61.044h0.291V60.175H663.3q0.145-.869.29-1.738h0.291V57.857h0.291q0.435-1.883.872-3.766h0.29V53.222h0.291V52.353h0.291V51.483h0.29V50.614H666.5l0.291-1.738h0.29V47.717h0.291V46.848h0.291V42.213l-0.582-.29c-0.891-.875-5.169-0.608-6.685-0.869a3.676,3.676,0,0,1-.291-1.449c0.331-.33.116,0,0.291-0.579,1.9-.7,5.434-0.3,7.848-0.29a5.541,5.541,0,0,0,3.2.29,18.94,18.94,0,0,1,7.266-.29A4.529,4.529,0,0,1,679,40.475a3.572,3.572,0,0,0-.581.579h-0.582v0.29H675.8l-0.291.579-1.163.869v0.579l-0.581.29-0.291,1.159h-0.29V45.4H672.9v0.579h-0.291v0.579h-0.29v0.579h-0.291q-0.291.869-.581,1.738h-0.291v0.869h-0.291v0.579h-0.29V50.9H670.28v0.579h-0.291v0.869H669.7q-0.144.579-.29,1.159h-0.291V54.38h-0.291V54.96h-0.29v0.869h-0.291l-0.291,1.159h-0.29v0.869h-0.291v0.579h-0.291q-0.144.724-.29,1.449H666.5v0.869H666.21q-0.144.579-.29,1.159h-0.291v0.869h-0.291v0.579h-0.29l-0.291,1.449h-0.291v0.869h-0.29v0.579h-0.291v0.869h-0.291q-0.146.724-.29,1.449h-0.291v0.579h-0.291v0.869h-0.29l-0.291,1.159H661.85v0.869h-0.29v0.579h-0.291V73.5h-0.291q-0.145.724-.29,1.448H660.4v0.579h-0.291V76.4h-0.29l-0.291,1.159h-0.291v0.869h-0.29l-0.291,1.159h-0.291v0.869h-0.29l-0.291,1.159H657.49v0.869H657.2l-0.291,1.159h-0.291V84.51h-0.29v0.579h-0.291v0.579h-0.291v0.579h-0.29v0.869h-0.291V87.7h-0.291q-0.291.869-.581,1.738H654V90.3h-0.291q-0.289.869-.581,1.738h-0.291v0.579h-0.29V93.2h-0.291V93.78h-0.291v0.579h-0.29v0.579h-0.291v0.579H651.1v0.869H650.8l-0.582,1.738h-0.29v0.579h-0.291v0.579h-0.291v0.579h-0.29v0.579H648.77q-1.017,2.318-2.035,4.635h-0.29v0.58h-0.291v0.579h-0.291v0.58h-0.29V107.4h-0.291v0.579h-0.291q-0.145.581-.29,1.159H644.41A2.441,2.441,0,0,0,643.829,110.293ZM93.586,39.9v0.29H92.423v0.29l-1.744.579v0.29H90.1l-0.581.869-1.453,1.159v0.579l-0.872.579L86.9,45.689a16.621,16.621,0,0,0-2.907,8.691,7.842,7.842,0,0,0,2.616.29c0.822-.68,2.553.062,3.779-0.29,3.35-.963,7.5-1.062,10.755-2.028h1.744v-0.29c1.2-.357,2.424.128,3.2-0.579h0.29V49.456c-0.578-.51-0.245-0.565-0.581-1.159H105.5V47.717h-0.29l-0.291-.869-0.581-.29V45.979l-2.326-2.028C99.743,41.687,98.213,39.882,93.586,39.9Zm129.058,0v0.29l-2.034.29v0.29h-0.582q-0.145.29-.29,0.579h-0.582l-0.581.869-1.744,1.449v0.579l-0.582.29q-0.144.435-.29,0.869h-0.291l-0.291,1.159a16.292,16.292,0,0,0-2.325,7.822,7.844,7.844,0,0,0,2.616.29c0.822-.68,2.554.062,3.779-0.29,3.36-.966,7.471-1.055,10.755-2.028h1.744v-0.29c1.2-.357,2.423.128,3.2-0.579h0.291V49.745h-0.291L234.852,48.3l-0.581-.29V47.428H233.98V46.848l-0.872-.579V45.689l-1.744-1.449C229.047,41.93,227.352,39.885,222.644,39.9ZM276.709,54.38c2.8,0.543,7.885-.1,10.465-0.869l3.488-.29c2.609-.781,5.956-1.2,8.72-1.738a8.062,8.062,0,0,0-1.454-4.346l-0.581-.29V46.269l-1.163-.869V44.82l-1.744-1.449-0.29-.579h-0.582L292.7,41.634l-1.162-.29-0.291-.579h-0.581v-0.29H289.79v-0.29L286.3,39.9v0.29h-1.163v0.29h-0.582v0.29l-1.162.29-0.582.869h-0.581l-0.872,1.159h-0.291v0.579l-0.872.579q-0.144.579-.29,1.159l-0.582.29q-0.435,1.3-.872,2.607h-0.29v0.579h-0.291v0.869A13.916,13.916,0,0,0,276.709,54.38ZM33.417,44.531v0.29H32.545l-0.291.579H31.963v0.579H31.673v28.1h0.291V76.4h0.291v1.738h0.291l0.291,1.448,0.872,0.579v0.29l1.744,0.579v0.29h0.872v0.29l3.488,0.29v0.29c1.926,0.537,5.75-.183,6.976-0.579H47.95v-0.29h0.872v-0.29H49.4v-0.29h0.872v-0.29h0.581v-0.29h0.581l0.291-.579H52.31l0.291-.579h0.581l0.581-.869L55.8,76.4V75.818l0.581-.29V74.949l0.581-.29,0.581-1.738h0.291V72.342h0.291V71.473h0.291V70.6h0.291V69.155H59V67.417h0.291c0.474-1.671-.2-6.979-0.581-8.112H58.414V58.147H58.124V57.567H57.833V56.7H57.542V56.119H57.252V55.539l-0.581-.29L56.38,54.091,55.8,53.8V53.222l-0.872-.579V52.063l-0.581-.29-1.453-1.738H52.31l-0.872-1.159H50.857L50.566,48.3H49.985l-0.291-.579-1.163-.29v-0.29l-1.744-.579v-0.29H45.915v-0.29H45.043v-0.29H44.171V45.4H43.009V45.11H41.846V44.82Zm457.519,0c-0.719.6-2.106-.03-3.2,0.29v0.29l-2.907.29v0.29h-1.163v0.29H482.8v0.29h-0.872v0.29h-0.872v0.29l-1.163.29v0.29c-1.059.572-1,.126-1.744,1.159h-0.29V76.4h0.29v0.579h0.291l1.744,2.028,1.163,0.29q0.145,0.29.29,0.579h0.582v0.29h0.872v0.29h0.581v0.29l2.035,0.29a14.474,14.474,0,0,0,8.429.29h1.454v-0.29l1.744-.29v-0.29l1.744-.579v-0.29h0.581v-0.29l1.163-.29v-0.29l0.872-.29q0.145-.29.29-0.579h0.582q0.145-.29.29-0.579l1.163-.869V75.818l0.582-.29q0.144-.579.29-1.159h0.291l0.291-1.159h0.29c1.081-2.47,2.215-9.853,1.163-13.326V58.436C504.74,52.015,499.4,44.554,490.935,44.531Zm83.423,16.223a9.73,9.73,0,0,0-5.232.869h-0.872v0.29h-0.582V62.2H566.8v0.29h-0.581v0.29h-0.872v0.29h-0.581v0.29h-0.582l-0.29.579-1.163.29-0.291.579h-0.581l-0.581.869H560.7v0.29l-0.872.579v0.579l-0.872.579q-0.145.724-.29,1.449h-0.291v0.869H558.08c-0.3.848-.6,5.128,0,5.794l0.291,0.869h0.291c0.517,0.744-.315.554,0.872,0.869,1.48,1.743,7.425,1.493,9.3.579l1.163-.29q0.145-.29.29-0.579h0.582l0.291-.579h0.581l1.163-1.448,0.581-.29V74.37l0.581-.29,0.291-1.159h0.291V69.445C574.649,66.585,574.82,63.154,574.358,60.754ZM68.588,96.1h8.72v2.318H71.2v4.056h5.523v2.318H71.2v4.056h6.685a11.438,11.438,0,0,0-.291,2.317H68.588V96.1Zm25,13.905a5.5,5.5,0,0,1,.872-2.317c2.043,0.955,3.3,1.891,5.813.869a4.156,4.156,0,0,0,.581-2.028c-0.33-.33-0.115,0-0.29-0.579-0.719-.308-1.411-0.826-2.035-1.159H97.946V104.5H97.364v-0.29L96.2,103.92l-1.744-2.028c-0.053-1.193-.378-2.469.291-3.187a2.93,2.93,0,0,1,2.035-2.028c1.508-1.586,5.457.008,6.686,0.579-0.167.582,0.034,0.251-.291,0.579a5.125,5.125,0,0,1-.581,1.449,9.788,9.788,0,0,0-4.651-.869,3.548,3.548,0,0,0-.872,2.608l1.744,1.448,2.907,0.869,1.744,2.028c0.091,1.229.5,2.367-.291,3.187a2.93,2.93,0,0,1-2.035,2.028c-0.553.574-.168,0-0.872,0.289v0.29H99.109v0.29C97.291,111.95,94.9,110.315,93.586,110ZM149.4,96.1h3.779a18.207,18.207,0,0,0,2.034.869l1.163,1.448h0.291v0.579h0.29v0.579h0.291v0.869h0.291c1.325,3.753-.5,9.442-3.2,10.14v0.289h-0.872c-2.2.911-2.9,0.264-5.232,0v-0.289l-0.872-.29-0.872-1.159H146.2q-0.144-.579-0.29-1.159h-0.291V107.4h-0.291v-0.869h-0.29v-1.738h-0.291v-2.318h0.291v-1.738h0.29V99.864h0.291l0.291-1.159h0.29V98.126l2.326-1.738H149.4V96.1Zm11.627,0h8.72v2.318h-6.1v4.056h5.523v2.318h-5.523v6.373h-2.616V96.1Zm30.23,13.326a2.482,2.482,0,0,0-1.163.579v0.29l-1.163.29v0.289c-1.549.669-5.03,0.78-6.1-.289-3.167-.746-4.6-7.308-2.907-11.009l1.744-2.318h0.582v-0.29a3.785,3.785,0,0,0,.872-0.58l4.651-.29a20.387,20.387,0,0,1,3.2,1.738,17.87,17.87,0,0,1-1.163,1.738l-1.162-.29-0.291-.579c-1.134-.578-3.244-0.2-4.36,0l-0.872,1.159h-0.291c-0.337.486,0.006,0.664-.581,1.159L181.95,104.5c0.251,0.922.677,2.237,0.872,3.187a4.411,4.411,0,0,0,1.453.869,3.36,3.36,0,0,0,2.617.579v-0.289h0.872v-0.29h0.581v-0.29h0.581c0.118-.071.726-0.938,1.163-0.869v0.29A2.675,2.675,0,0,1,191.252,109.424Zm14.824,1.738H203.46v-0.29h-0.291c-0.119-1.4-.707-1.839-0.872-3.186h-6.1q-0.581,1.737-1.163,3.476h-2.325a15.793,15.793,0,0,1,1.744-4.925v-0.869h0.291V104.5h0.29V103.63h0.291v-0.869h0.291v-0.58h0.29l0.291-1.738a14.984,14.984,0,0,0,1.453-4.056,9.829,9.829,0,0,0,3.2-.29v0.579h0.29l0.291,1.738h0.291v0.869h0.29v0.579H202.3v0.869h0.291V101.6h0.291q0.29,1.3.581,2.607h0.291v0.58h0.29v0.869h0.291q0.291,1.3.581,2.607H205.2v0.58H205.5A12.884,12.884,0,0,1,206.076,111.162ZM225.551,96.1h8.429a5.971,5.971,0,0,1,.291,2.318h-6.1v4.056h5.523V104.5c-1.319.489-3.736,0.3-5.523,0.29v6.373h-2.616V96.1Zm14.824,0c3.173-.105,6.385.262,6.976,2.607,2.205,1.854,1.435,8.319,0,10.429h-0.29l-0.872,1.159h-0.582v0.29c-0.594.335-.647,0.006-1.162,0.579l-3.2.29-2.616-.869q-0.726-.87-1.453-1.738h-0.291q-0.146-.581-0.29-1.159h-0.291c-1.038-2.372-.623-7.486.581-9.271l2.035-1.738,1.453-.29V96.1Zm-221.783.29h2.616V104.5l0.291,3.476,0.872,0.58c0.55,0.567,1.467.593,2.616,0.579,0.653-.724,1.115-0.278,1.453-1.448,0.5-.558.29-2.165,0.291-3.187V96.387h2.907c0.1,4.7.967,13.271-2.616,14.2-0.756.808-4.288,1.188-5.232,0.289a3.323,3.323,0,0,1-2.616-2.317c-0.733-.735-0.581-2.3-0.581-3.766v-8.4Zm14.534,0h2.616l0.291,0.869,0.581,0.29v0.579l0.581,0.29,0.291,1.159,0.581,0.29v0.579l0.581,0.29v0.579h0.291v0.58l0.581,0.289,0.291,1.159,0.581,0.29a5.8,5.8,0,0,1,.872,2.028h0.291V96.387h2.907v14.485a7.828,7.828,0,0,1-2.616.29l-5.813-9.56H35.742v9.56H33.126V96.387Zm14.824,0h2.616v14.775H47.95V96.387Zm5.232,0H55.8a0.507,0.507,0,0,0,.291.29,14.334,14.334,0,0,0,1.453,4.346c0.873,2.183,1.168,4.523,2.035,6.663h0.291a7.05,7.05,0,0,1,.872-2.9V103.92H61.03v-0.869h0.291v-0.87h0.291v-0.869H61.9v-0.869h0.291V99.574a12.032,12.032,0,0,0,1.163-3.187h2.616L61.03,111.162H58.124a0.509,0.509,0,0,0-.291-0.29A11.087,11.087,0,0,0,56.67,107.4l-0.581-2.607H55.8v-0.58H55.508L54.926,101.6A20.983,20.983,0,0,1,53.182,96.387Zm27.9,0h6.686v0.29l1.453,0.29c0.542,0.891,2.132,2.417,1.744,4.056H90.679v1.448H90.388a2.93,2.93,0,0,1-2.035,2.028l3.488,6.663H88.935c-0.371-.9-2.612-5.515-3.2-5.794H83.7v5.794H81.087V96.387Zm25.579,0h2.616v14.775h-2.616V96.387Zm5.523,0h10.464l-0.291,2.318h-3.778v12.457h-2.617V98.705h-3.778V96.387Zm12.208,0H127.3c0.448,2.28,2.1,3.7,2.616,6.084a0.5,0.5,0,0,0,.29-0.29c0.683-.6.7-1.459,1.163-2.317h0.291V99.284a10.572,10.572,0,0,0,1.453-2.9h2.907a5.976,5.976,0,0,1-1.163,2.028l-0.291,1.159h-0.29l-0.291,1.159-0.581.29V101.6l-0.582.579v0.58h-0.29v0.579l-0.582.29v0.579h-0.29v6.663a9.007,9.007,0,0,1-2.907.29V104.5h-0.291V103.92h-0.29v-0.58h-0.291v-0.579l-0.581-.58V101.6l-0.582-.29v-0.579h-0.29v-0.58l-0.582-.579V98.995l-0.581-.29V98.126h-0.291Q124.689,97.256,124.4,96.387Zm83.714,0h2.616v12.458h6.394a9.853,9.853,0,0,1-.29,2.317h-8.72V96.387Zm11.336,0h2.907v14.485a9.01,9.01,0,0,1-2.907.29V96.387Zm31.392,0h6.686v0.29l1.453,0.29,1.454,2.028c0.1,2.827-.164,4.969-2.326,5.5a7.665,7.665,0,0,0,1.163,2.028l0.291,1.159h0.29l0.291,1.159,0.581,0.289v0.58h0.291l0.291,1.448h-2.616c-0.466-.963-2.531-5.475-3.2-5.794h-2.034v5.794h-2.617V96.387Zm15.406,0,0.291,0.869h0.29v0.579h0.291v0.579l0.581,0.29v0.579l0.582,0.29v0.579h0.291v0.58l0.581,0.29,0.291,1.158,0.581,0.29v0.58l0.581,0.289L270.9,104.5l0.581,0.29,0.291,0.869h0.291V96.387h2.616v14.775h-2.326a2.71,2.71,0,0,0-.581-0.579V110l-0.581-.289-0.291-1.159-0.581-.29v-0.579l-0.582-.29c-0.1-.29-0.194-0.579-0.29-0.869h-0.291l-0.291-1.159-0.581-.29V104.5l-0.582-.29q-0.144-.579-0.29-1.158l-0.582-.29q-0.144-.435-0.29-0.869h-0.291v8.98a9,9,0,0,1-2.907.29V96.677A9.025,9.025,0,0,1,266.245,96.387Zm11.627,0h2.616v14.775h-2.616V96.387Zm13.08,0,4.942,14.775h-2.616q-0.582-1.737-1.163-3.476h-6.1q-0.582,1.737-1.163,3.476h-2.325a6.247,6.247,0,0,1,.872-2.317q0.291-1.3.581-2.608h0.291v-0.579h0.29l0.291-1.738h0.291q0.145-.87.29-1.739h0.291V101.6h0.291v-0.869H286.3V99.864q0.726-1.738,1.453-3.477h3.2ZM149.976,98.415v0.29H149.4l-0.582.869h-0.29c-0.757,1.126-1.523,5.958-.291,7.243a1.645,1.645,0,0,0,.872,1.158l0.581,0.87h0.872c1.248,0.454,1.662-.011,2.907-0.29a15.982,15.982,0,0,0,1.454-2.607c0.594-1.865-.337-4.886-0.582-6.084l-1.744-1.448h-2.616Zm90.981,0c-0.643.759-1.438,0.871-1.744,2.028-0.462.431-1.047,4.568-.582,5.794h0.291v0.58h0.291c0.513,0.959.253,1.436,1.453,1.738a3.082,3.082,0,0,0,2.325.579v-0.289h0.872l1.163-1.449c0.592-.569,1.4-4.2.872-5.794a18.661,18.661,0,0,1-.872-2.028,6.36,6.36,0,0,1-1.453-1.159h-2.616ZM83.7,98.705v4.346a8.709,8.709,0,0,0,3.779-.58,5.89,5.89,0,0,0,.581-2.9,1.95,1.95,0,0,1-.872-0.869H83.7Zm169.753,0v4.346a8.705,8.705,0,0,0,3.778-.58,5.894,5.894,0,0,0,.582-2.9,1.943,1.943,0,0,1-.872-0.869h-3.488Zm-56.391,6.953h4.36a11.308,11.308,0,0,0-.581-2.318h-0.291v-0.579h-0.291v-0.869h-0.29v-0.869h-0.291l-0.291-1.739H199.1v0.29h-0.291Q197.938,102.616,197.065,105.658Zm89.818,0h4.36q-1.017-3.186-2.035-6.374c-0.331.33-.116,0-0.29,0.579h-0.291Z"/>
  <path id="DATAVERSE" class="cls-1" d="M732.055,65.419c0-9.2-6.3-15.4-16.551-15.4H707V81.27h8.251C725.9,81.27,732.055,75.269,732.055,65.419Zm-3.2.25c0,8.551-5.451,12.651-13.451,12.651h-5.2V52.968h5.1C723.854,52.968,728.855,57.718,728.855,65.669ZM765.5,50.018h-3.75L749.9,81.27h3.25l3.3-8.951H770.6l3.3,8.951h3.25Zm4,19.4h-11.95l6-16.251Zm47.251-16.4v-3h-25.2v3h11V81.27h3.2V53.018h11Zm30-3H843L831.153,81.27h3.25l3.3-8.951h14.15l3.3,8.951h3.25Zm4,19.4H838.8l6-16.251Zm49.151-19.4h-3.25l-10.1,27.952L876.4,50.018h-3.25L884.6,81.27h3.75ZM938.3,81.27V78.32H922.6V67.069h13.1v-2.9H922.6v-11.2h15.7v-2.95H919.4V81.27h18.9Zm24.649-12.5,6.251-.4,8,12.9h3.7l-8.651-13.451c4.05-1.25,7.251-4.1,7.251-8.8,0-5.45-3.651-9-11.351-9h-8.4V81.27h3.2v-12.5Zm0-2.85v-13H967.8c5.45,0,8.5,2.15,8.5,6.25s-3.6,6.4-7.75,6.55ZM1009.4,79.07a15.7,15.7,0,0,1-9-2.9l-1.147,2.85a18.769,18.769,0,0,0,10.047,2.9c6.25,0,10.55-3.85,10.55-9,0-5.65-4.55-7.7-9.05-9.051-4.8-1.5-7.9-2.8-7.9-6.25,0-2.85,2.25-5.35,6.95-5.35a15.159,15.159,0,0,1,8.2,2.6l1.15-2.8a17.15,17.15,0,0,0-9.4-2.7c-5.8,0-10,3.55-10,8.5,0,5.55,4.7,7.45,9.1,8.751,4.9,1.45,7.9,2.9,7.9,6.55C1016.8,76.47,1013.75,79.07,1009.4,79.07Zm50.45,2.2V78.32h-15.7V67.069h13.1v-2.9h-13.1v-11.2h15.7v-2.95h-18.9V81.27h18.9Z"/>
</svg>
