<svg xmlns="http://www.w3.org/2000/svg" width="402" height="52" viewBox="0 0 402 52">
  <defs>
    <style>
      .cls-1 {
        fill: #ca113d;
      }

      .cls-1, .cls-2 {
        fill-rule: evenodd;
      }
    </style>
  </defs>
  <path id="DATAVERSE_STAGING" data-name="DATAVERSE STAGING" class="cls-1" d="M268.234,15.464a5.5,5.5,0,0,0-5.89-5.853h-3.025V21.488h2.936C266.046,21.488,268.234,19.208,268.234,15.464Zm-1.139.095c0,3.25-1.939,4.808-4.786,4.808h-1.851V10.732h1.815C265.316,10.732,267.1,12.538,267.1,15.559Zm13.043-5.948H278.8l-4.218,11.877h1.157l1.174-3.4h5.036l1.175,3.4h1.156Zm1.424,7.373h-4.253l2.135-6.176Zm16.815-6.233V9.611h-8.968v1.14h3.915V21.488h1.138V10.751h3.915Zm10.677-1.14h-1.335L303.5,21.488h1.156l1.175-3.4h5.036l1.174,3.4H313.2Zm1.423,7.373h-4.253l2.136-6.176Zm17.492-7.373h-1.157l-3.6,10.623L319.605,9.611h-1.156l4.075,11.877h1.334Zm13.665,11.877V20.367h-5.587V16.091h4.662v-1.1h-4.662V10.732h5.587V9.611h-6.726V21.488h6.726Zm8.773-4.751,2.224-.152,2.847,4.9H356.8l-3.079-5.112a3.425,3.425,0,0,0,2.581-3.345c0-2.071-1.3-3.421-4.04-3.421h-2.989V21.488h1.139V16.737Zm0-1.083V10.713h1.726c1.939,0,3.025.817,3.025,2.375a2.581,2.581,0,0,1-2.758,2.489Zm16.53,5a5.354,5.354,0,0,1-3.2-1.1l-0.409,1.083a6.378,6.378,0,0,0,3.577,1.1,3.467,3.467,0,0,0,3.754-3.421c0-2.147-1.619-2.927-3.22-3.44-1.709-.57-2.812-1.064-2.812-2.376,0-1.083.8-2.033,2.473-2.033a5.164,5.164,0,0,1,2.919.988l0.409-1.064a5.823,5.823,0,0,0-3.345-1.026,3.287,3.287,0,0,0-3.559,3.231c0,2.109,1.672,2.832,3.238,3.326,1.744,0.551,2.812,1.1,2.812,2.49A2.4,2.4,0,0,1,366.937,20.652Zm17.955,0.836V20.367H379.3V16.091h4.662v-1.1H379.3V10.732h5.588V9.611h-6.727V21.488h6.727ZM262.148,43.456a5.355,5.355,0,0,1-3.2-1.1l-0.409,1.083a6.378,6.378,0,0,0,3.577,1.1,3.468,3.468,0,0,0,3.755-3.421c0-2.147-1.62-2.927-3.221-3.44-1.709-.57-2.812-1.064-2.812-2.375,0-1.083.8-2.033,2.474-2.033a5.16,5.16,0,0,1,2.918.988l0.409-1.064a5.823,5.823,0,0,0-3.345-1.026,3.288,3.288,0,0,0-3.559,3.231c0,2.109,1.673,2.831,3.239,3.326,1.743,0.551,2.811,1.1,2.811,2.489A2.394,2.394,0,0,1,262.148,43.456Zm19-9.9v-1.14h-8.969v1.14H276.1V44.292h1.139V33.555h3.915Zm10.676-1.14h-1.335l-4.217,11.877h1.157l1.174-3.4h5.036l1.174,3.4h1.157Zm1.424,7.373H289l2.135-6.176Zm18.238,3.573V38.382h-4.324v1.1h3.221v3.231a5.256,5.256,0,0,1-2.669.722c-2.545,0-4.235-1.957-4.235-5.093,0-3.231,1.779-5.074,4.2-5.074a5.854,5.854,0,0,1,3.168.988l0.374-1.1a6.837,6.837,0,0,0-3.524-.988c-3.114,0-5.374,2.432-5.374,6.214,0,3.763,2.153,6.157,5.374,6.157A6.735,6.735,0,0,0,311.491,43.361Zm9.04,0.931V32.414h-1.122V44.292h1.122ZM336.367,42.6L330.05,32.414h-1.281V44.292h1.1V34.125l6.371,10.281h1.228V32.414h-1.1V42.6Zm17.883,0.76V38.382h-4.324v1.1h3.221v3.231a5.256,5.256,0,0,1-2.669.722c-2.545,0-4.235-1.957-4.235-5.093,0-3.231,1.779-5.074,4.2-5.074a5.854,5.854,0,0,1,3.168.988l0.373-1.1a6.83,6.83,0,0,0-3.523-.988c-3.114,0-5.374,2.432-5.374,6.214,0,3.763,2.153,6.157,5.374,6.157A6.735,6.735,0,0,0,354.25,43.361Z"/>
  <path id="Berkeley_Library_1" data-name="Berkeley Library 1" class="cls-2" d="M24.741,20.481l1.036,0.313v0.1l0.932,0.314v0.1l0.414,0.1,0.1,0.209,0.621,0.209,0.1,0.209h0.207l0.1,0.209h0.207l0.207,0.314h0.207l0.725,0.836,0.414,0.314V23.93l0.311,0.209,0.1,0.418,0.207,0.1v0.314h0.1v0.209h0.1V25.5h0.1v0.314h0.1v0.418h0.1v0.523h0.1l-0.1,2.717h-0.1v0.418h-0.1l-0.1.627h-0.1l-0.207.627h-0.1l-0.1.418-0.207.1v0.209l-0.311.209V32.29l-0.207.1-0.518.627H28.883l-0.311.418H28.365l-0.1.209-0.621.209-0.1.209-2.8.941-2.071.209v0.1H19.149v-0.1H18.217v-0.1H17.285v-0.1H16.249V34.9l-4.66.1c-0.2.017-.207,0.1-0.207,0.1a2.013,2.013,0,0,1-1.45-.209h-0.1V34.276l0.207-.1c0.583-.562,2.429.152,3-0.418a3.891,3.891,0,0,0,.1-1.672V10.24A3.234,3.234,0,0,1,12.935,9.3h-0.1l-0.1-.418h-0.1V8.672A5.461,5.461,0,0,0,12,8.254H10.657L9.1,8.045A2.02,2.02,0,0,1,9,7.314a31.886,31.886,0,0,1,5.178-.1h1.864V7.1L19.77,7c2.3,0,4.07-.02,5.7.627l0.621,0.1v0.1l0.414,0.1v0.1l0.621,0.209v0.1l0.311,0.1,0.1,0.209h0.207L28.365,9.4l0.518,0.418a5.88,5.88,0,0,1,1.036,3.449v1.254L29.3,16.406l-0.207.1-0.1.418-0.311.209v0.209l-0.828.732-0.414.523H27.226l-0.207.313H26.812l-0.1.209-0.311.1v0.1H26.191l-0.1.209-0.311.1v0.1H25.569v0.1H25.362l-0.1.209H25.052v0.1C24.765,20.35,24.867,20.07,24.741,20.481ZM102,34.8a27.331,27.331,0,0,1-4.349.1,28.078,28.078,0,0,1-4.453-.1V34.172l0.414-.1v-0.1h0.828a5.228,5.228,0,0,0,1.864-.209,8.873,8.873,0,0,0,.1-2.4V9.717H96.3V9.4H96.2V9.3a1.12,1.12,0,0,1-.207-0.209H95.782v-0.1l-2.175-.1A1.391,1.391,0,0,0,93.3,8.463l0.1-.418,3.625-.418L99.3,7l0.1,0.209a3.45,3.45,0,0,1,.1,1.881,34.48,34.48,0,0,0-.1,5.016q-0.052,6.374-.1,12.75v0.418H99.2v5.121h0.1v0.731h0.1l0.1,0.523a0.986,0.986,0,0,1,.207.209h0.207v0.1c0.646,0.246,1.5-.259,1.968.209,0.105,0.081.1,0.128,0.207,0.209C102.064,34.52,102.03,34.659,102,34.8ZM66.682,7.1c0.066,1.208,0,3.163,0,4.7a11.148,11.148,0,0,1-.1,2.508q-0.1,6.845-.207,13.69a1.3,1.3,0,0,0,.518.1A0.808,0.808,0,0,1,67.3,27.9V27.8H67.51l0.1-.209h0.207l0.1-.209h0.207l0.207-.313h0.207l0.207-.314H68.96l0.1-.209,0.311-.1,0.311-.418h0.207l0.414-.523h0.207l0.518-.627h0.207l0.518-.627,0.311-.1L72.9,23.2c0.9-.9,1.874-1.4,1.864-3.24a1.086,1.086,0,0,1-.207-0.209H74.345v-0.1H72.481a0.236,0.236,0,0,0-.207-0.1,1.654,1.654,0,0,1-.1-0.627h0.1v-0.1L73,18.7v0.1h1.243v0.1h0.621a17.385,17.385,0,0,1,2.382-.1,1.333,1.333,0,0,1,.725-0.1v0.1l0.311,0.1-0.414.836-0.311.209v0.209l-0.311.209v0.209l-0.725.627v0.209L76,21.84l-0.829.941H74.967l-0.725.836H74.035l-0.207.314-0.311.209v0.1H73.31l-0.207.314H73l-0.1.209H72.688l-0.311.418-0.311.1-0.414.523-0.414.314c-0.056.2,0.064,0.144,0.1,0.209a1.739,1.739,0,0,0,.414.732l0.207,0.1v0.209L72.481,27.8v0.209L73,28.424v0.209l0.518,0.418V29.26l0.311,0.209v0.1l0.207,0.1v0.209l0.621,0.523v0.209l0.414,0.313v0.209l0.414,0.314v0.209L75.9,31.977v0.209l0.621,0.523v0.209l0.207,0.1,0.311,0.418h0.207l0.311,0.418,0.414,0.1v0.1l1.346,0.1v0.1l0.518,0.1a1.337,1.337,0,0,1,.1.523,0.182,0.182,0,0,0-.1.1,17.6,17.6,0,0,1-1.864.1l-0.829-.1v0.1a8.2,8.2,0,0,1-2.382-.1l-0.518-.627h-0.1V34.172l-0.311-.209V33.754l-0.311-.209V33.335L73.1,33.022V32.813l-0.518-.418V32.186l-0.621-.523-0.1-.314-0.311-.209V30.932l-0.414-.313V30.409L70.721,30.1l-0.1-.314-0.207-.1V29.469L70.1,29.26V29.051l-0.311-.209V28.633l-0.414-.314C69.146,28,69.258,27.862,68.753,27.8a4.847,4.847,0,0,1-1.139.732l-0.1.209-0.414.1-0.1.209H66.785v0.1l-0.311.209v0.209h-0.1a24.1,24.1,0,0,0,.207,4.18l0.518,0.1v0.1c0.778,0.25,2.078-.309,2.589.209h0.1v0.313a0.708,0.708,0,0,1,.1.1h-0.1l-0.1.313H60.779a0.876,0.876,0,0,1-.207-0.627,0.857,0.857,0,0,1,.621-0.209v-0.1h1.864a0.232,0.232,0,0,1,.207-0.1,6.594,6.594,0,0,0,.1-1.881,3.573,3.573,0,0,0,.1-1.568V15.988c0.015-1.244.337-3.281,0-4.494V10.031c-0.078-.26-0.247-0.54-0.311-0.836a0.4,0.4,0,0,1-.311-0.209H61.608l-1.139-.209a1.337,1.337,0,0,1-.1-0.523c0.118-.119.041,0,0.1-0.209a5.627,5.627,0,0,1,1.657-.1,6.628,6.628,0,0,1,1.657-.209v-0.1l1.036-.1A5.809,5.809,0,0,1,66.682,7.1ZM170.343,8.045l2.486-.209v-0.1h0.518v-0.1h0.517v-0.1h0.415v-0.1H174.8v-0.1L176.35,7.1a2.008,2.008,0,0,1,.1.732h-0.1V8.463a11.394,11.394,0,0,0-.207,2.926q-0.052,3.239-.1,6.479a18.958,18.958,0,0,0,.1,2.926,1.608,1.608,0,0,0,.621.1,0.858,0.858,0,0,1,.414-0.209v-0.1h0.207v-0.1h0.208l0.207-.209h0.207l0.1-.209h0.207l0.208-.209h0.207v-0.1h0.207v-0.1h0.207v-0.1l0.621-.209v-0.1h0.311v-0.1h0.207v-0.1l0.932-.209V18.7h0.621V18.6h0.622v0.1h0.828v0.1H183.7v0.1h0.311v0.1h0.311v0.1l0.621,0.209v0.1l0.414,0.1,0.208,0.313h0.207l0.414,0.523,0.932,0.836v0.209l0.207,0.1v0.209l0.207,0.1c0.035,0.139.069,0.279,0.1,0.418l0.207,0.1c0.034,0.174.069,0.348,0.1,0.523h0.1c0.034,0.139.069,0.279,0.1,0.418h0.1q0.156,0.679.311,1.359h0.1V25.08h0.1v0.627h0.1v1.045a2.023,2.023,0,0,1,.1.941h-0.1v0.941q-0.258.94-.517,1.881h-0.1l-0.207.627h-0.1c-0.034.139-.069,0.279-0.1,0.418l-0.207.1v0.209l-0.207.1v0.209l-0.311.209V32.6l-0.621.522-0.518.627h-0.207l-0.207.313-0.415.1-0.1.209h-0.207v0.1h-0.207v0.1h-0.311v0.1h-0.207v0.1h-0.311v0.1H183.5v0.1h-0.31v0.1h-0.518v0.1a12.925,12.925,0,0,1-3.107.1v-0.1h-0.621v-0.1h-0.414v-0.1H178.11V34.9H177.7V34.8h-0.311v-0.1h-0.31a5.794,5.794,0,0,0-2.279-.732l-0.621.836c-0.315.691,0.128,1.349-.932,1.359a10.518,10.518,0,0,1-.1-2.926,3.582,3.582,0,0,0,.1-1.568V16.092a41.432,41.432,0,0,0-.207-6.584L172.725,9.3v-0.1h-0.207V9.09h-0.932v-0.1a3.921,3.921,0,0,1-1.243-.1h-0.1V8.254C170.358,8.135,170.281,8.254,170.343,8.045Zm-9.32,23.723c0.035,0.139.069,0.279,0.1,0.418h-0.1c-0.034.174-.069,0.348-0.1,0.523h-0.1v0.209l-0.207.1q-0.156.47-.311,0.941h-0.1v0.209h-0.1v0.313h-0.1a0.812,0.812,0,0,1-.207.523v0.1H155.12a2.294,2.294,0,0,0-1.139-.1h-2.9c-3.823,0-8.111.07-11.6,0a0.922,0.922,0,0,1-.207-0.731,1.132,1.132,0,0,1,.829-0.314c0.688-.572,2.405.62,2.485-0.836a4.191,4.191,0,0,0,.1-1.777V26.543q0.052-4.911.1-9.824a21.8,21.8,0,0,0-.1-4.6V10.344h-0.1V9.613h-0.1V9.195h-0.1V8.986h-0.1V8.777l-0.31-.209v-0.1h-2.175v-0.1l-0.518-.1a1.328,1.328,0,0,1-.1-0.523c0.117-.119.041,0,0.1-0.209,0.208-.038.207-0.1,0.207-0.1H140v-0.1a2.136,2.136,0,0,1,.932.1h7.456l1.864-.1v0.1h1.036a2.008,2.008,0,0,1,.1.732l-0.31.1a3.065,3.065,0,0,1-1.657.209,12.7,12.7,0,0,0-2.589.314,1.979,1.979,0,0,1-.311.314V25.184a7.761,7.761,0,0,0-.1,2.3l0.207,4.6h0.1V32.5a1.965,1.965,0,0,0,.725,1.15c0.389,0.4,2.977.209,3.832,0.209a19.774,19.774,0,0,0,5.9-.627l0.828-.1,1.968-.836v-0.1H160.2v-0.1A2.72,2.72,0,0,1,161.023,31.768ZM17.181,8.568a25.963,25.963,0,0,0-.1,3.971V19.75l0.311,0.1a3.167,3.167,0,0,0,1.45.1l3.521,0.1v0.1c0.361,0.1.778,0,1.036,0.1v-0.1a5.6,5.6,0,0,0,2.589-3.24l0.1-1.568h0.1l-0.1-1.672h-0.1V13.27h-0.1l-0.1-.732h-0.1V12.33h-0.1V12.016h-0.1l-0.1-.418h-0.1l-0.1-.418-0.207-.1V10.867l-0.207-.1V10.553l-0.311-.209V10.135l-0.414-.314L23.6,9.3H23.395l-0.1-.209H23.084a4.328,4.328,0,0,0-3-.941H18.32v0.1H17.8v0.1H17.492v0.1Zm149.745,2.926a4.123,4.123,0,0,1,.932.1,1.208,1.208,0,0,1,.207.418h0.1a2.852,2.852,0,0,1-.207,1.359h-0.1v0.209h-0.1v0.209h-0.1a0.777,0.777,0,0,1-.518.418,0.99,0.99,0,0,1-1.45-.418h-0.1V13.061h0.1V12.748h0.1c0.034-.139.069-0.279,0.1-0.418l0.518-.418,0.1-.209A1.027,1.027,0,0,0,166.926,11.494Zm-127.894,6.9H41v0.1l0.828,0.1v0.1l0.621,0.1v0.1l0.518,0.1v0.1l0.414,0.1v0.1l0.414,0.1v0.1l0.311,0.1,0.1,0.209h0.207l0.1,0.209h0.207l0.207,0.314h0.207L45.66,21l0.518,0.418v0.209l0.414,0.313v0.209a2.587,2.587,0,0,1,.725,1.359l-0.311.1v0.1l-0.725.1v0.1H45.763v0.1H45.349v0.1H44.831v0.1H44.313c-1.057.333-2.428,0.412-3.521,0.732H39.964v0.1H39.135v0.1H38.2v0.1H37.064v0.1H35.925v0.1H35.718l-0.1.314a2.83,2.83,0,0,0-.1,1.359l0.311,1.881h0.1v0.314h0.1v0.209h0.1l0.1,0.523,0.207,0.1,0.1,0.418,0.207,0.1v0.209l0.414,0.314,0.621,0.732H38l0.1,0.209h0.207l0.1,0.209,0.414,0.1v0.1l0.621,0.209v0.1h0.311v0.1h0.311v0.1h0.414v0.1H40.9v0.1h0.621v0.1a7.3,7.3,0,0,0,2.382-.1h0.725l2.485-.836a1.224,1.224,0,0,1,.207.418h-0.1a3.789,3.789,0,0,1-1.346.941c-1.517,1.01-4.5,2.323-7.145,1.463l-0.829-.1a7.6,7.6,0,0,1-4.764-4.494V30.3h-0.1V29.991h-0.1V29.469h-0.1V28.842h-0.1a12.283,12.283,0,0,1,.1-3.031V25.184c0.716-2.408,1.389-4.027,3.21-5.33l0.207-.313h0.207l0.1-.209L38.2,18.6A2.781,2.781,0,0,0,39.032,18.391Zm45.98,0h1.968v0.1l0.828,0.1v0.1l0.621,0.1v0.1l0.518,0.1v0.1l0.414,0.1v0.1h0.207l0.1,0.209,0.414,0.1v0.1l0.311,0.1,0.1,0.209h0.207l0.311,0.418h0.207l0.621,0.732,0.207,0.1v0.209l0.414,0.314v0.209l0.311,0.209a3.39,3.39,0,0,1,.518,1.254l-0.311.1a2.076,2.076,0,0,1-.829.209v0.1H91.743v0.1H91.329v0.1H90.811v0.1H90.293c-1.309.412-2.986,0.441-4.349,0.836H85.115v0.1H84.183v0.1H83.044v0.1H81.9v0.1H81.7l-0.1.314a2.616,2.616,0,0,0-.1,1.254,6.094,6.094,0,0,0,.725,2.822l0.1,0.418,0.207,0.1v0.209l0.207,0.1v0.209l0.414,0.314,0.621,0.732h0.207l0.207,0.313,0.414,0.1v0.1H84.8v0.1l0.621,0.209v0.1l0.932,0.209v0.1l1.139,0.1a7.312,7.312,0,0,0,2.382.1v-0.1H90.5v-0.1h0.518v-0.1h0.414a6.707,6.707,0,0,1,1.657-.627,1.337,1.337,0,0,1,.1.523l-0.414.209-0.1.209H92.468l-0.1.209H92.157l-0.1.209-0.414.1-0.1.209-0.414.1v0.1L90.5,34.59v0.1H90.19v0.1H89.982v0.1H89.672v0.1H89.361v0.1H89.05v0.1H88.74v0.1l-0.932.1v0.1H86.876a8.234,8.234,0,0,1-3.314-.523l-1.243-.418-0.1-.209-0.414-.1-0.207-.314H81.387l-0.414-.523A6.766,6.766,0,0,1,78.9,30.1V29.573H78.8V29.051h-0.1V27.9h-0.1l0.1-2.195h0.1V25.08l0.725-2.3h0.1V22.571l0.207-.1,0.207-.627,0.207-.1V21.526L81.8,19.854h0.207l0.207-.313h0.207l0.1-.209,1.657-.732A2.777,2.777,0,0,0,85.012,18.391ZM104.377,25.5a2.91,2.91,0,0,0-.207,1.463h0.1v1.045h0.1v0.523h0.1v0.418h0.1V29.26h0.1v0.314h0.1v0.209h0.1l0.207,0.627,0.207,0.1v0.209l0.311,0.209v0.209l0.207,0.1,0.414,0.523h0.207l0.311,0.418,0.414,0.1,0.1,0.209h0.207v0.1l0.414,0.1v0.1h0.311v0.1h0.207v0.1l0.725,0.1v0.1h0.414a8.663,8.663,0,0,0,3,.209v-0.1l1.243-.1v-0.1h0.31v-0.1h0.311v-0.1h0.311v-0.1h0.31a1.531,1.531,0,0,1,.725-0.313,1.226,1.226,0,0,1,.208.418h-0.1a2.848,2.848,0,0,1-1.139.836l-0.1.209-0.414.1v0.1h-0.207v0.1l-0.414.1a8.017,8.017,0,0,1-4.039,1.15h-1.45v-0.1l-1.139-.1v-0.1h-0.311v-0.1h-0.31v-0.1h-0.311V34.9h-0.311V34.8h-0.207v-0.1l-0.621-.209-0.1-.209h-0.207a8,8,0,0,1-1.139-1.045l-0.414-.313V32.708L102.72,32.5V32.29l-0.207-.1c-0.035-.139-0.069-0.279-0.1-0.418h-0.1l-0.207-.627H102l-0.207-.941h-0.1V29.782h-0.1V29.364h-0.1q-0.051-1.62-.1-3.24L102,23.407h0.1c0.034-.139.069-0.279,0.1-0.418h0.1V22.78h0.1V22.571h0.1V22.362l0.207-.209V21.944l0.207-.1V21.631l0.207-.1V21.317L103.549,21V20.795l0.621-.522,0.1-.209h0.208l0.31-.418H105l0.1-.209h0.207l0.1-.209,0.932-.314v-0.1h0.207V18.7l0.725-.1c2.452-.821,5.044.673,6.42,1.672l0.829,0.941a8.035,8.035,0,0,1,1.035,1.149v0.209l0.207,0.1a1.572,1.572,0,0,1,.208.836l-0.311.1a7.4,7.4,0,0,1-1.657.523h-0.414v0.1h-0.518c-1.317.415-2.982,0.439-4.35,0.836H107.9v0.1h-1.036v0.1h-1.139v0.1h-1.139v0.1h-0.207Zm66.9,9.3c-0.22.04-.649,0.161-0.829,0.209a1.513,1.513,0,0,1-.725-0.1h-5.7l-1.242.1V34.9h-0.518a0.918,0.918,0,0,1-.207-0.731,7.82,7.82,0,0,1,2.9-.209c0.424-.835.208-2.675,0.208-3.867V21.213l-0.415-1.254c-0.329-.474-1.835-0.308-2.485-0.418a1.658,1.658,0,0,1-.1-0.627h0.1v-0.1h0.518V18.7h3.831V18.6h0.622V18.5c0.314-.091.576,0.006,0.828-0.1v0.1c0.224,0.148.208,0.247,0.207,0.627h0.1v0.732a14.544,14.544,0,0,0-.1,3.135q-0.051,4.545-.1,9.092h0.1v0.836h0.1c0.034,0.209.069,0.418,0.1,0.627a2.2,2.2,0,0,1,.311.314h1.657v0.1h0.621A1.361,1.361,0,0,1,171.276,34.8ZM54.048,20.9a2.354,2.354,0,0,0,1.035-.418l0.207-.314H55.5l0.1-.209h0.207l0.1-.209,0.311-.1v-0.1H56.43v-0.1l0.621-.209v-0.1l0.621-.1v-0.1h0.414v-0.1h0.621v0.1h0.414v0.1h0.207v0.1H59.64v0.1h0.207l0.1,0.209h0.207l0.828,0.941a2.927,2.927,0,0,1-.414,1.672v0.314h-0.1a1.609,1.609,0,0,1-.207.523H59.847a5.179,5.179,0,0,0-1.657-1.463H57.776a3.332,3.332,0,0,0-3.521,1.045,5.037,5.037,0,0,0-.207,2.195v4.7c0,1.164-.272,3.973.414,4.389,0.422,0.407,2.138.121,2.8,0.313h0.725v0.1h0.1V34.8a9.891,9.891,0,0,1-2.8.1c-0.341-.3-1.516-0.056-2.071-0.1-0.194-.017-0.207-0.1-0.207-0.1a2.926,2.926,0,0,0-1.139.1l-3.417.1a2.02,2.02,0,0,1-.1-0.731,0.182,0.182,0,0,0,.1-0.1l2.382-.1c0.434-.856.207-2.755,0.207-3.971v-9.2h-0.1V20.272a2.272,2.272,0,0,1-.518-0.418l-2.175-.1a2.386,2.386,0,0,1,0-.941l1.243-.1a12.492,12.492,0,0,0,3.107.1,5.09,5.09,0,0,1,1.243-.209A5.611,5.611,0,0,1,54.048,20.9ZM216.427,33.44v0.314l-1.036.941-0.1.209h-0.207l-0.208.314h-0.207v0.1a1.2,1.2,0,0,0-.31.209,2.939,2.939,0,0,1-1.45-.418l-0.311-.418h-0.207l-0.518-.627-0.207-.1V33.754l-0.31-.209V33.335l-0.311-.209c-0.244-.345-0.064-0.441-0.622-0.522a2.152,2.152,0,0,1-.724.522l-0.208.314h-0.207l-0.207.314h-0.207l-0.1.209h-0.208l-0.1.209-0.414.1-0.1.209h-0.207v0.1l-0.414.1v0.1H207v0.1H206.8v0.1l-0.621.1v0.1H205.76a3.225,3.225,0,0,1-1.553.209v-0.1l-0.932-.1v-0.1l-0.621-.209-0.622-.836V33.754h-0.1q-0.052-.784-0.1-1.568h0.1V31.454h0.1V31.036h0.1V30.723h0.1V30.514h0.1V30.2l0.207-.1c0.035-.139.069-0.279,0.1-0.418l0.31-.209V29.26l0.415-.313L204,28.215h0.207l0.1-.209,0.31-.1V27.8l0.622-.209v-0.1h0.207v-0.1l0.621-.209v-0.1h0.311v-0.1h0.207v-0.1l0.621-.1v-0.1h0.311v-0.1h0.311v-0.1h0.31v-0.1h0.311v-0.1h0.311v-0.1l0.724-.1v-0.1l0.725-.1,0.1-.209,0.207-.1V21.84q-0.156-.47-0.311-0.941h-0.1l-0.414-.523a0.963,0.963,0,0,1-.415-0.209,8.017,8.017,0,0,0-2.485,0h-0.621a13.315,13.315,0,0,1-1.243.523c0.036,1.249-.44,3.011-1.346,3.24v0.1h-0.725a1.461,1.461,0,0,1-.311-1.15h0.1c0.034-.209.069-0.418,0.1-0.627h0.1c0.034-.139.069-0.279,0.1-0.418h0.1V21.631l0.207-.1V21.317l0.311-.209V20.9l0.725-.627,0.1-.209h0.207l0.207-.313h0.207l0.1-.209h0.207v-0.1l0.621-.209v-0.1l0.932-.209v-0.1l1.347-.1V18.6a2.264,2.264,0,0,1,1.035.1h0.932v0.1h0.415v0.1l0.932,0.209,1.242,0.941v0.209l0.207,0.1c0.035,0.139.069,0.279,0.1,0.418h0.1V21h0.1a8.307,8.307,0,0,1,.1,2.508v5.539a7.941,7.941,0,0,0,.1,2.4h0.1l0.207,0.627,0.207,0.1A4.8,4.8,0,0,0,216.427,33.44ZM121.671,19.959c-0.034.139-.069,0.279-0.1,0.418h-0.1a1.817,1.817,0,0,0,.1.941l0.207,1.045h0.1c0.035,0.139.069,0.279,0.1,0.418h0.1v0.314h0.1V23.3h0.1c0.034,0.139.069,0.279,0.1,0.418h0.1v0.314h0.1v0.209h0.1c0.034,0.139.069,0.279,0.1,0.418h0.1v0.314h0.1c0.035,0.139.069,0.279,0.1,0.418h0.1v0.313h0.1c0.035,0.139.069,0.279,0.1,0.418h0.1v0.314h0.1c0.034,0.139.069,0.279,0.1,0.418h0.1V27.17h0.1v0.209h0.1c0.035,0.174.069,0.348,0.1,0.523h0.1v0.314h0.1v0.209h0.1v0.314h0.1v0.209h0.1V29.26h0.1v0.209h0.1v0.314h0.1l0.207,0.627h0.1v0.209h0.1a0.892,0.892,0,0,1,.207.418h0.311v-0.1h0.1v-0.1h0.1V30.618h0.1V30.409h0.1V30.2h0.1V29.887h0.1V29.573h0.1V29.364h0.1V29.051h0.1c0.035-.209.069-0.418,0.1-0.627h0.1V28.11h0.1V27.8h0.1V27.483h0.1V27.17h0.1V26.856h0.1c0.035-.209.069-0.418,0.1-0.627h0.1c0.035-.209.069-0.418,0.1-0.627h0.1l0.207-.941h0.1V24.348h0.1V24.034h0.1V23.721h0.1V23.407h0.1V23.094h0.1l0.207-1.045h0.1V21.631h0.1V20.063a1,1,0,0,1-.207-0.209h-0.207v-0.1c-0.633-.241-1.684.257-2.175-0.209h-0.1V19.018c0.118-.119.042,0,0.1-0.209h0.414V18.7l2.8,0.1h1.45V18.7h1.864a2.028,2.028,0,0,1,.1.732,5.971,5.971,0,0,1-1.347.418l-0.31.523h-0.1v0.209l-0.207.209V21h-0.1v0.209l-0.208.1c-0.034.174-.069,0.348-0.1,0.523h-0.1v0.209h-0.1v0.209h-0.1l-0.207.627h-0.1V23.2h-0.1c-0.035.139-.069,0.279-0.1,0.418h-0.1V23.93h-0.1c-0.034.139-.069,0.279-0.1,0.418h-0.1v0.314h-0.1v0.209h-0.1v0.314h-0.1c-0.034.139-.069,0.279-0.1,0.418h-0.1v0.314h-0.1v0.209h-0.1c-0.034.174-.069,0.348-0.1,0.523h-0.1v0.314h-0.1V27.17h-0.1v0.314h-0.1v0.209h-0.1v0.314c-1.671,3.735-3.094,7.76-4.971,11.287V39.5h-0.1V39.71h-0.1v0.209h-0.1v0.209h-0.1v0.209h-0.1l-0.207.627h-0.1l-0.207.627h-0.1c-0.035.139-.069,0.279-0.1,0.418h-0.1c-0.035.139-.069,0.279-0.1,0.418h-0.1v0.209h-0.1v0.209h-0.1v0.209h-0.1v0.209h-0.1v0.209h-0.1v0.209h-0.1v0.209h-0.1V44.1h-0.1v0.209h-0.1v0.209h-0.1l-0.1.209h-0.208l-0.1.209h-0.414a2.908,2.908,0,0,1-1.139.209c-0.546.161-2.21,0.8-2.8,0.209h-0.1V45.04l1.139-.418v-0.1h0.207v-0.1h0.207l0.1-.209,0.414-.1,0.311-.418h0.207l0.311-.418h0.1V43.055l0.414-.314V42.532l0.311-.209V42.114l0.414-.313V41.591l0.207-.1V41.278l0.311-.209c0.035-.1.069-0.209,0.1-0.314l0.207-.1V40.442l0.207-.1V40.128l0.311-.209V39.71l0.207-.1c0.034-.1.069-0.209,0.1-0.314h0.1V39.083l0.207-.1V38.77l0.207-.1V38.456l0.207-.1V38.143l0.207-.1c0.035-.139.069-0.279,0.1-0.418l0.207-.1c0.034-.139.069-0.279,0.1-0.418l0.208-.1V36.784l0.207-.209V36.366h0.1V36.157a1.4,1.4,0,0,0,.311-1.045h-0.1V34.8h-0.1V34.59h-0.1c-0.034-.209-0.069-0.418-0.1-0.627h-0.1c-0.034-.174-0.069-0.348-0.1-0.523h-0.1c-0.035-.139-0.069-0.279-0.1-0.418h-0.1V32.708h-0.1V32.5h-0.1c-0.035-.174-0.069-0.348-0.1-0.523h-0.1V31.663h-0.1c-0.034-.139-0.069-0.279-0.1-0.418h-0.1V30.932h-0.1c-0.034-.139-0.069-0.279-0.1-0.418h-0.1c-0.034-.174-0.069-0.348-0.1-0.523h-0.1V29.678h-0.1c-0.035-.139-0.069-0.279-0.1-0.418h-0.1V28.946h-0.1c-0.035-.139-0.069-0.279-0.1-0.418h-0.1V28.215h-0.1c-0.034-.139-0.069-0.279-0.1-0.418h-0.1V27.483h-0.1c-0.035-.139-0.069-0.279-0.1-0.418h-0.1V26.752h-0.1c-0.035-.139-0.069-0.279-0.1-0.418h-0.1V26.02h-0.1V25.811h-0.1V25.5h-0.1c-0.034-.139-0.069-0.279-0.1-0.418h-0.1V24.766h-0.1c-0.034-.139-0.069-0.279-0.1-0.418h-0.1V24.034h-0.1c-0.035-.139-0.069-0.279-0.1-0.418h-0.1V23.3h-0.1c-0.034-.139-0.069-0.279-0.1-0.418h-0.1V22.571h-0.1c-0.034-.139-0.069-0.279-0.1-0.418h-0.1V21.84h-0.1c-0.035-.139-0.069-0.279-0.1-0.418h-0.1V21.213h-0.1V21h-0.1V20.795l-0.208-.209V20.377l-0.207-.1c-0.034-.1-0.069-0.209-0.1-0.314h-0.207a2.034,2.034,0,0,0-1.347-.209,1.318,1.318,0,0,1,0-.732l0.311-.1a6.87,6.87,0,0,1,2.175-.1,14.74,14.74,0,0,0,2.382,0h1.449V18.7l1.347,0.1a1.362,1.362,0,0,1,.207.836h-0.1v0.1A8.083,8.083,0,0,0,121.671,19.959Zm72.9,0.941a1.565,1.565,0,0,0,.932-0.314l0.207-.313h0.207l0.1-.209h0.207l0.1-.209h0.207l0.1-.209,0.414-.1c0.035-.07.07-0.139,0.1-0.209h0.311v-0.1h0.207v-0.1h0.31v-0.1a3.517,3.517,0,0,1,1.761,0v0.1h0.311l1.139,0.836v0.209h0.1a1.293,1.293,0,0,0,.207.314A3.586,3.586,0,0,1,201,22.258c-0.035.174-.069,0.348-0.1,0.523h-0.1a0.352,0.352,0,0,1-.311.209,1.487,1.487,0,0,0-.414-0.314V22.467l-0.207-.1-0.208-.314h-0.207l-0.207-.314-0.414-.1v-0.1h-0.207v-0.1H198.1a4.365,4.365,0,0,0-2.589.313l-0.1.209H195.2l-0.207.209v0.209l-0.207.1a4.843,4.843,0,0,0-.207,1.254h-0.1v5.33c0,1.31-.243,4.241.517,4.7v0.1H195.3v0.1h1.139l2.071,0.1a3.684,3.684,0,0,1,.1.731,8.745,8.745,0,0,1-2.486.1c-0.4-.354-1.482.059-2.071-0.1v-0.1h-1.864v0.1l-3.21.1a2.027,2.027,0,0,1-.1-0.731h0.1v-0.1c0.7-.031,1.546-0.1,2.382-0.1,0.434-.856.207-2.755,0.207-3.971v-9.2a1.909,1.909,0,0,0-.414-0.732c-0.463-.448-1.853.061-2.279-0.313h-0.1V18.914a10.267,10.267,0,0,1,2.9-.1,1.439,1.439,0,0,0,.932.1,7.431,7.431,0,0,1,1.865-.209,5.376,5.376,0,0,1,.1,1.568h-0.1C194.507,20.481,194.542,20.69,194.576,20.9Zm28.168,0h0.414a2.618,2.618,0,0,1,.932-0.627l0.1-.209H224.4l0.1-.209h0.207c0.035-.07.07-0.139,0.1-0.209l0.414-.1,0.1-.209,0.518-.1v-0.1h0.207v-0.1h0.414v-0.1a3.692,3.692,0,0,1,1.45.1v0.1h0.207v0.1l0.621,0.209,0.207,0.314h0.207l0.208,0.209v0.209l0.207,0.1c0.034,0.244.069,0.488,0.1,0.732h-0.1c-0.035.244-.069,0.488-0.1,0.732h-0.1v0.314h-0.1v0.209h-0.1c-0.122.235-.207,0.5-0.31,0.732-0.208-.06-0.09.012-0.207-0.1a4.121,4.121,0,0,1-1.139-.941l-0.1-.209-1.139-.418a2.489,2.489,0,0,0-1.139.1H224.5v0.1H224.09l-0.932.627c-0.581.8-.518,2.151-0.518,3.553a49.461,49.461,0,0,0,.207,7.943l0.311,0.1v0.1h0.311v0.1H224.5l2.072,0.1a0.876,0.876,0,0,1,.207.627c-0.118.119-.042,0-0.1,0.209l-6.317-.209v0.1l-3.21.1a2.027,2.027,0,0,1-.1-0.731h0.1v-0.1c0.673-.061,1.561-0.1,2.382-0.1,0.434-.856.207-2.755,0.207-3.971V20.9h-0.1V20.377c0-.01-0.064.02-0.1-0.209l-0.311-.1v-0.1h-0.207v-0.1c-0.674-.248-1.855.393-2.071-0.313h-0.1a1.2,1.2,0,0,1,.207-0.732h2.8a1.439,1.439,0,0,0,.932.1,7.428,7.428,0,0,1,1.864-.209,4.505,4.505,0,0,1,.1,1.359A0.931,0.931,0,0,0,222.744,20.9Zm12.427,23.723-0.311.1v0.1h-0.31v0.1l-1.14.1a5.972,5.972,0,0,1-2.381.523v-0.1l-0.622-.1c-0.034-.1-0.069-0.209-0.1-0.313a13.617,13.617,0,0,0,2.589-1.359v-0.1l0.414-.313V43.055l0.414-.314V42.532l0.414-.313V42.009l0.311-.209V41.591l0.311-.209V41.173l0.31-.209V40.755l0.207-.1V40.442l0.311-.209V40.024l0.207-.1c0.035-.1.069-0.209,0.1-0.313H236V39.4l0.311-.209V38.979l0.207-.1V38.665l0.207-.1c0.035-.139.069-0.279,0.1-0.418l0.207-.1c0.034-.1.069-0.209,0.1-0.314h0.1c0.035-.139.069-0.279,0.1-0.418l0.207-.1V36.993l0.207-.209V36.575h0.1V36.366h0.1V36.157a1.437,1.437,0,0,0,.311-1.15h-0.1V34.694h-0.1V34.485h-0.1V34.172h-0.1V33.963h-0.1c-0.035-.174-0.069-0.348-0.1-0.523h-0.1V33.126h-0.1V32.917h-0.1V32.6h-0.1V32.395h-0.1V32.081h-0.1c-0.035-.139-0.069-0.279-0.1-0.418h-0.1V31.35h-0.1c-0.034-.139-0.069-0.279-0.1-0.418h-0.1c-0.034-.174-0.069-0.348-0.1-0.522h-0.1V30.1h-0.1c-0.034-.139-0.069-0.279-0.1-0.418H236V29.364h-0.1c-0.035-.139-0.069-0.279-0.1-0.418h-0.1V28.633h-0.1c-0.034-.139-0.069-0.279-0.1-0.418h-0.1V27.9h-0.1V27.692h-0.1V27.379h-0.1c-0.034-.139-0.069-0.279-0.1-0.418h-0.1V26.647h-0.1c-0.035-.139-0.069-0.279-0.1-0.418h-0.1V25.916h-0.1c-0.035-.139-0.069-0.279-0.1-0.418h-0.1V25.184h-0.1c-0.034-.139-0.069-0.279-0.1-0.418h-0.1V24.452h-0.1c-0.035-.139-0.069-0.279-0.1-0.418h-0.1V23.721h-0.1c-0.035-.139-0.069-0.279-0.1-0.418h-0.1V22.989h-0.1V22.78h-0.1V22.467H233c-0.034-.139-0.069-0.279-0.1-0.418h-0.1V21.735h-0.1V21.526h-0.1V21.317h-0.1V21.108h-0.1V20.9h-0.1a1.262,1.262,0,0,0-.725-0.941c-0.6-.489-1.329.488-1.346-0.836l0.207-.1a2.723,2.723,0,0,1,1.657-.209c1.679,0.48,4.11-.231,5.9.1a2.009,2.009,0,0,1,.1.732l-0.31.1v0.1h-1.346a0.233,0.233,0,0,1-.208.1c-0.034.1-.069,0.209-0.1,0.314a2.928,2.928,0,0,0,.1,1.986h0.1v0.209h0.1V22.78h0.1c0.035,0.139.069,0.279,0.1,0.418h0.1v0.314h0.1c0.034,0.139.069,0.279,0.1,0.418h0.1v0.209h0.1v0.314h0.1c0.035,0.139.069,0.279,0.1,0.418h0.1v0.314h0.1v0.209h0.1c0.035,0.139.069,0.279,0.1,0.418h0.1v0.314h0.1v0.209h0.1v0.313h0.1c0.035,0.139.069,0.279,0.1,0.418h0.1v0.313h0.1v0.209h0.1c0.035,0.174.069,0.348,0.1,0.523h0.1v0.314h0.1v0.209H239v0.314h0.1v0.209h0.1v0.313h0.1v0.209h0.1v0.314h0.1V30.2l0.207,0.1c0.256,0.4.068,0.655,0.725,0.732,0.035-.1.069-0.209,0.1-0.314h0.1V30.409h0.1c0.035-.139.069-0.279,0.1-0.418h0.1V29.678h0.1c0.034-.209.069-0.418,0.1-0.627h0.1c0.034-.209.069-0.418,0.1-0.627h0.1V28.11h0.1V27.8h0.1V27.483h0.1V27.17h0.1V26.856h0.1V26.543h0.1c0.035-.209.069-0.418,0.1-0.627h0.1V25.707h0.1q0.155-.679.311-1.359h0.1V24.034h0.1V23.721h0.1V23.407h0.1V23.094h0.1c0.035-.209.069-0.418,0.1-0.627h0.1V22.049h0.1V21.735h0.1V20.063l-0.207-.1c-0.318-.316-1.842-0.219-2.382-0.314a1.325,1.325,0,0,1-.1-0.523c0.118-.119.041,0,0.1-0.209a9.891,9.891,0,0,1,2.8-.1,1.949,1.949,0,0,0,1.139.1,6.67,6.67,0,0,1,2.589-.1,1.661,1.661,0,0,1,.1.627,1.34,1.34,0,0,0-.207.209h-0.207v0.1h-0.725l-0.1.209-0.415.314v0.209l-0.207.1c-0.034.139-.069,0.279-0.1,0.418h-0.1v0.209h-0.1v0.209h-0.1v0.209h-0.1V21.84h-0.1l-0.207.627h-0.1V22.78h-0.1v0.209h-0.1V23.2h-0.1v0.209h-0.1v0.314h-0.1c-0.035.139-.07,0.279-0.1,0.418h-0.1v0.314h-0.1v0.209h-0.1v0.314h-0.1c-0.035.139-.069,0.279-0.1,0.418h-0.1v0.313h-0.1v0.209h-0.1q-0.052.261-.1,0.523h-0.1v0.314h-0.1c-0.035.139-.069,0.279-0.1,0.418h-0.1v0.314h-0.1v0.209h-0.1c-0.035.174-.069,0.348-0.1,0.523h-0.1v0.313h-0.1v0.209h-0.1v0.313h-0.1c-0.035.174-.069,0.348-0.1,0.523h-0.1v0.209h-0.1V30.1h-0.1c-0.035.139-.069,0.279-0.1,0.418h-0.1v0.314h-0.1v0.209h-0.1V31.35h-0.1c-0.035.174-.069,0.348-0.1,0.523h-0.1v0.209h-0.1v0.313h-0.1c-0.035.139-.069,0.279-0.1,0.418h-0.1v0.313h-0.1c-0.035.139-.069,0.279-0.1,0.418h-0.1v0.314h-0.1c-0.034.139-.069,0.279-0.1,0.418h-0.1V34.59h-0.1c-0.035.139-.07,0.279-0.1,0.418h-0.1v0.313h-0.1V35.53h-0.1v0.209h-0.1v0.209h-0.1v0.314h-0.1v0.209h-0.1L238.9,37.1h-0.1v0.314h-0.1l-0.207.627h-0.1v0.209h-0.1v0.209h-0.1v0.209h-0.1v0.209h-0.1v0.209h-0.1v0.209h-0.1v0.314h-0.1l-0.207.627h-0.1v0.209h-0.1v0.209h-0.1V40.86h-0.1v0.209h-0.1q-0.362.836-.725,1.672h-0.1V42.95H236v0.209h-0.1v0.209h-0.1v0.209h-0.1v0.209h-0.1c-0.034.139-.069,0.279-0.1,0.418h-0.1A0.881,0.881,0,0,0,235.171,44.622ZM39.135,19.227v0.1H38.721v0.1l-0.621.209v0.1H37.893l-0.207.313-0.518.418V20.69l-0.311.209-0.1.418a6.044,6.044,0,0,0-1.036,3.135,2.76,2.76,0,0,0,.932.1,4.707,4.707,0,0,1,1.346-.1c1.193-.347,2.671-0.383,3.832-0.732h0.621v-0.1a2.952,2.952,0,0,0,1.139-.209h0.1V22.676a0.815,0.815,0,0,1-.207-0.418h-0.1V22.049h-0.1l-0.1-.314-0.207-.1V21.422l-0.828-.732A3.547,3.547,0,0,0,39.135,19.227Zm45.98,0v0.1l-0.725.1v0.1H84.183l-0.1.209H83.873l-0.207.313-0.621.523v0.209l-0.207.1-0.1.314h-0.1l-0.1.418a5.927,5.927,0,0,0-.828,2.822,2.76,2.76,0,0,0,.932.1,4.707,4.707,0,0,1,1.346-.1c1.2-.348,2.662-0.381,3.832-0.732h0.621v-0.1a2.953,2.953,0,0,0,1.139-.209h0.1V22.78h-0.1l-0.1-.523-0.207-.1V21.944h-0.1V21.735l-0.311-.209V21.317l-0.621-.523A3.759,3.759,0,0,0,85.115,19.227Zm19.262,5.225a9.872,9.872,0,0,0,3.728-.314l1.243-.1c0.929-.282,2.122-0.432,3.107-0.627a2.933,2.933,0,0,0-.518-1.568l-0.207-.1V21.526l-0.415-.313V21l-0.621-.523c-0.034-.07-0.069-0.139-0.1-0.209h-0.207l-0.31-.418-0.415-.1-0.1-.209h-0.207v-0.1h-0.311v-0.1l-1.243-.1v0.1H107.38v0.1h-0.207v0.1l-0.414.1-0.207.314h-0.207l-0.311.418h-0.1v0.209l-0.31.209c-0.035.139-.069,0.279-0.1,0.418l-0.207.1q-0.156.47-.311,0.941h-0.1v0.209h-0.1V22.78A5.067,5.067,0,0,0,104.377,24.452ZM17.7,20.9V21H17.388l-0.1.209h-0.1v0.209h-0.1V31.559h0.1v0.836h0.1v0.627h0.1l0.1,0.523L17.8,33.754v0.1l0.621,0.209v0.1h0.311v0.1l1.243,0.1v0.1a5.855,5.855,0,0,0,2.485-.209h0.414v-0.1h0.311v-0.1h0.207v-0.1h0.311v-0.1h0.207v-0.1H24.12l0.1-.209H24.43l0.1-.209h0.207l0.207-.313,0.725-.627V32.186l0.207-.1V31.872l0.207-.1,0.207-.627h0.1V30.932h0.1V30.618h0.1V30.3h0.1V29.782h0.1V29.155h0.1a9.047,9.047,0,0,0-.207-2.926H26.6V25.811H26.5V25.6H26.4V25.289h-0.1V25.08h-0.1V24.871l-0.207-.1-0.1-.418-0.207-.1V24.034l-0.311-.209V23.616l-0.207-.1-0.518-.627H24.43l-0.311-.418H23.912l-0.1-.209H23.6l-0.1-.209-0.414-.1v-0.1l-0.621-.209v-0.1H22.152v-0.1H21.841v-0.1H21.531v-0.1H21.116v-0.1H20.7V21Zm163,0a3.828,3.828,0,0,1-1.139.1v0.1l-1.035.1v0.1H178.11v0.1H177.8v0.1h-0.311v0.1h-0.311v0.1l-0.414.1v0.1a0.972,0.972,0,0,0-.621.418h-0.1V32.395h0.1V32.6h0.1l0.622,0.731,0.414,0.1,0.1,0.209h0.208v0.1h0.31v0.1h0.207v0.1l0.725,0.1a5.1,5.1,0,0,0,3,.1h0.518v-0.1l0.622-.1v-0.1l0.621-.209v-0.1h0.207v-0.1l0.414-.1v-0.1l0.311-.1c0.034-.07.069-0.139,0.1-0.209h0.207l0.1-.209,0.414-.313V32.186l0.208-.1c0.034-.139.069-0.279,0.1-0.418h0.1c0.034-.139.069-0.279,0.1-0.418h0.1a9.972,9.972,0,0,0,.414-4.807V25.916C185.618,23.6,183.716,20.908,180.7,20.9Zm29.721,5.852a3.429,3.429,0,0,0-1.864.314h-0.31v0.1h-0.207v0.1h-0.311v0.1h-0.207v0.1H207.21v0.1H207v0.1H206.8l-0.1.209-0.414.1-0.1.209h-0.208l-0.207.313h-0.207v0.1l-0.31.209v0.209l-0.311.209c-0.035.174-.069,0.348-0.1,0.523h-0.1V30.1h-0.1a4.608,4.608,0,0,0,0,2.09c0.035,0.1.069,0.209,0.1,0.314h0.1c0.185,0.268-.112.2,0.311,0.313,0.528,0.629,2.646.539,3.314,0.209l0.414-.1,0.1-.209h0.207l0.1-.209h0.207l0.415-.523,0.207-.1V31.663l0.207-.1c0.034-.139.069-0.279,0.1-0.418h0.1V29.887A19.25,19.25,0,0,0,210.42,26.752ZM30.229,39.5h3.107v0.836H31.161V41.8h1.968v0.836H31.161V44.1h2.382a4.178,4.178,0,0,0-.1.836h-3.21V39.5Zm8.906,5.016a2,2,0,0,1,.311-0.836A2.14,2.14,0,0,0,41.517,44a1.515,1.515,0,0,0,.207-0.731c-0.118-.119-0.041,0-0.1-0.209-0.256-.111-0.5-0.3-0.725-0.418H40.689v-0.1H40.482v-0.1l-0.414-.1-0.621-.731a1.673,1.673,0,0,1,.1-1.15,1.051,1.051,0,0,1,.725-0.732c0.537-.572,1.944,0,2.382.209-0.059.21,0.012,0.09-.1,0.209a1.851,1.851,0,0,1-.207.522,3.451,3.451,0,0,0-1.657-.313,1.29,1.29,0,0,0-.311.941L41,41.8l1.036,0.313,0.621,0.731a1.412,1.412,0,0,1-.1,1.15,1.05,1.05,0,0,1-.725.732c-0.2.207-.06,0-0.311,0.1v0.1H41.1v0.1C40.455,45.22,39.6,44.63,39.135,44.518ZM59.019,39.5h1.346a6.462,6.462,0,0,0,.725.313L61.5,40.337h0.1v0.209h0.1v0.209h0.1v0.314h0.1c0.472,1.354-.177,3.406-1.139,3.658v0.1H60.468a2.814,2.814,0,0,1-1.864,0v-0.1l-0.311-.1L57.983,44.2h-0.1l-0.1-.418h-0.1V43.577h-0.1V43.264h-0.1V42.636h-0.1V41.8h0.1V41.173h0.1V40.86h0.1l0.1-.418h0.1V40.233l0.829-.627h0.311V39.5Zm4.142,0h3.107v0.836H64.093V41.8h1.968v0.836H64.093v2.3H63.161V39.5Zm10.77,4.807a0.877,0.877,0,0,0-.414.209v0.1l-0.414.1v0.1a2.605,2.605,0,0,1-2.175-.1c-1.128-.269-1.639-2.636-1.035-3.971l0.621-.836h0.207v-0.1a1.349,1.349,0,0,0,.311-0.209l1.657-.1a7.237,7.237,0,0,1,1.139.627,6.479,6.479,0,0,1-.414.627L73,40.651l-0.1-.209a2.908,2.908,0,0,0-1.553,0l-0.311.418h-0.1a0.933,0.933,0,0,1-.207.418l-0.1,1.254c0.089,0.332.241,0.807,0.311,1.15a1.561,1.561,0,0,0,.518.313,1.186,1.186,0,0,0,.932.209V44.1h0.311V44H72.9v-0.1H73.1a0.84,0.84,0,0,1,.414-0.314v0.1A0.966,0.966,0,0,1,73.931,44.309Zm5.282,0.627H78.28v-0.1h-0.1c-0.043-.5-0.252-0.664-0.311-1.15H75.691l-0.414,1.254H74.449a5.733,5.733,0,0,1,.621-1.777V42.845h0.1V42.532h0.1V42.218h0.1V41.9h0.1V41.7h0.1l0.1-.627a5.459,5.459,0,0,0,.518-1.463,3.461,3.461,0,0,0,1.139-.1V39.71h0.1l0.1,0.627h0.1v0.313h0.1V40.86h0.1v0.314h0.1v0.313h0.1l0.207,0.941h0.1v0.209h0.1V42.95h0.1L78.8,43.891h0.1V44.1h0.1A4.685,4.685,0,0,1,79.212,44.936ZM86.151,39.5h3a2.183,2.183,0,0,1,.1.836H87.083V41.8H89.05v0.731a6.809,6.809,0,0,1-1.968.1v2.3H86.151V39.5Zm5.281,0c1.131-.038,2.275.094,2.485,0.941,0.786,0.669.511,3,0,3.762h-0.1l-0.311.418H93.3v0.1a0.819,0.819,0,0,0-.414.209l-1.139.1-0.932-.314L90.293,44.1h-0.1l-0.1-.418h-0.1a4.766,4.766,0,0,1,.207-3.344l0.725-.627,0.518-.1V39.5Zm-79.015.1h0.932v2.926l0.1,1.254L13.764,44a1.24,1.24,0,0,0,.932.209,0.97,0.97,0,0,0,.518-0.523,2.337,2.337,0,0,0,.1-1.15V39.606h1.036c0.035,1.7.345,4.787-.932,5.121a2,2,0,0,1-1.864.1A1.189,1.189,0,0,1,12.625,44a2.139,2.139,0,0,1-.207-1.359V39.606Zm5.178,0h0.932l0.1,0.313,0.207,0.1v0.209l0.207,0.1,0.1,0.418,0.207,0.1v0.209l0.207,0.1v0.209h0.1v0.209l0.207,0.1,0.1,0.418,0.207,0.1a2.106,2.106,0,0,1,.311.732h0.1V39.606h1.036v5.225a2.763,2.763,0,0,1-.932.1l-2.071-3.449h-0.1v3.449H17.6v-5.33Zm5.281,0h0.932v5.33H22.877v-5.33Zm1.864,0h0.932a0.182,0.182,0,0,0,.1.1,5.214,5.214,0,0,0,.518,1.568c0.311,0.788.416,1.632,0.725,2.4h0.1a2.567,2.567,0,0,1,.311-1.045V42.323h0.1V42.009h0.1V41.7h0.1V41.382h0.1V41.069h0.1V40.755a4.373,4.373,0,0,0,.414-1.149H29.3l-1.761,5.33H26.5a0.182,0.182,0,0,0-.1-0.1,4.033,4.033,0,0,0-.414-1.254l-0.207-.941h-0.1V42.427h-0.1l-0.207-.941A7.635,7.635,0,0,1,24.741,39.606Zm9.942,0h2.382v0.1l0.518,0.1a2.124,2.124,0,0,1,.621,1.463H38.1V41.8H38a1.051,1.051,0,0,1-.725.731l1.243,2.4H37.479a10.8,10.8,0,0,0-1.139-2.09H35.614v2.09H34.682v-5.33Zm9.113,0h0.932v5.33H43.8v-5.33Zm1.968,0h3.728l-0.1.836H48.041v4.494H47.109V40.442H45.763V39.606Zm4.349,0h1.035c0.16,0.822.75,1.336,0.932,2.195a0.182,0.182,0,0,0,.1-0.1A2.6,2.6,0,0,0,52.6,40.86h0.1V40.651a3.826,3.826,0,0,0,.518-1.045h1.036a2.16,2.16,0,0,1-.414.731l-0.1.418h-0.1l-0.1.418-0.207.1v0.209l-0.207.209V41.9h-0.1v0.209l-0.207.1v0.209H52.7v2.4a3.176,3.176,0,0,1-1.036.1v-2.4h-0.1V42.323h-0.1V42.114h-0.1V41.9L51.148,41.7V41.487l-0.207-.1V41.173h-0.1V40.964l-0.207-.209V40.546l-0.207-.1V40.233h-0.1Zm29.825,0h0.932V44.1h2.278a3.608,3.608,0,0,1-.1.836H79.937v-5.33Zm4.039,0h1.035v5.225a3.176,3.176,0,0,1-1.035.1v-5.33Zm11.184,0h2.382v0.1l0.518,0.1,0.518,0.732c0.035,1.02-.058,1.793-0.828,1.986a2.775,2.775,0,0,0,.414.732l0.1,0.418h0.1l0.1,0.418,0.207,0.1v0.209h0.1l0.1,0.523H97.956a10.843,10.843,0,0,0-1.139-2.09H96.092v2.09H95.16v-5.33Zm5.489,0c0.034,0.1.069,0.209,0.1,0.313h0.1v0.209h0.1v0.209l0.207,0.1v0.209l0.207,0.1v0.209h0.1v0.209l0.207,0.1c0.035,0.139.07,0.279,0.1,0.418L102,41.8v0.209l0.207,0.1c0.035,0.139.069,0.279,0.1,0.418l0.207,0.1c0.034,0.1.069,0.209,0.1,0.314h0.1V39.606h0.932v5.33h-0.828a0.981,0.981,0,0,0-.207-0.209V44.518l-0.208-.1c-0.034-.139-0.069-0.279-0.1-0.418l-0.207-.1V43.682l-0.207-.1c-0.035-.1-0.069-0.209-0.1-0.313h-0.1c-0.034-.139-0.069-0.279-0.1-0.418l-0.207-.1V42.532l-0.207-.1c-0.035-.139-0.069-0.279-0.1-0.418l-0.207-.1c-0.034-.1-0.069-0.209-0.1-0.313h-0.1v3.24a3.175,3.175,0,0,1-1.036.1V39.71A3.175,3.175,0,0,1,100.649,39.606Zm4.142,0h0.932v5.33h-0.932v-5.33Zm4.66,0,1.761,5.33H110.28l-0.414-1.254h-2.175l-0.414,1.254h-0.829a2.282,2.282,0,0,1,.311-0.836l0.207-.941h0.1V42.95h0.1c0.035-.209.069-0.418,0.1-0.627h0.1c0.035-.209.069-0.418,0.1-0.627h0.1V41.487h0.1V41.173h0.1V40.86q0.26-.627.518-1.254h1.139Zm-50.225.731v0.1H59.019l-0.207.313h-0.1c-0.27.406-.543,2.149-0.1,2.613a0.594,0.594,0,0,0,.311.418L59.122,44.1h0.311a1.419,1.419,0,0,0,1.036-.1,5.772,5.772,0,0,0,.518-0.941,5.094,5.094,0,0,0-.207-2.195l-0.621-.523H59.226Zm32.414,0a1.7,1.7,0,0,0-.621.732,4.155,4.155,0,0,0-.207,2.09h0.1v0.209h0.1c0.183,0.346.09,0.518,0.518,0.627a1.089,1.089,0,0,0,.829.209V44.1h0.311l0.414-.523a3.365,3.365,0,0,0,.311-2.09,6.732,6.732,0,0,1-.311-0.732,2.268,2.268,0,0,1-.518-0.418H91.639Zm-56.025.1v1.568a3.066,3.066,0,0,0,1.346-.209,2.147,2.147,0,0,0,.207-1.045,0.7,0.7,0,0,1-.311-0.313H35.614Zm60.478,0v1.568a3.066,3.066,0,0,0,1.346-.209,2.146,2.146,0,0,0,.207-1.045,0.7,0.7,0,0,1-.311-0.313H96.092ZM76,42.95h1.553a4.105,4.105,0,0,0-.207-0.836h-0.1V41.9h-0.1V41.591h-0.1V41.278h-0.1l-0.1-.627h-0.1v0.1h-0.1Zm32,0h1.553q-0.363-1.149-.725-2.3c-0.118.119-.041,0-0.1,0.209h-0.1Z"/>
</svg>
