<svg xmlns="http://www.w3.org/2000/svg" width="159" height="50" viewBox="0 0 159 50">
  <defs>
    <style>
      .cls-1 {
        fill: #46535e;
      }

      .cls-2 {
        fill: #fff;
        fill-rule: evenodd;
      }
    </style>
  </defs>
  <g id="Artboard_1" data-name="Artboard 1">
    <rect class="cls-1" width="159" height="50"/>
    <path id="Berkeley_Library_1" data-name="Berkeley Library 1" class="cls-2" d="M21.651,17.786l1.293,0.39v0.13l1.164,0.39v0.13l0.517,0.13,0.129,0.26,0.776,0.26,0.129,0.26h0.259L26.047,20h0.258l0.259,0.39h0.259l0.9,1.041,0.517,0.39v0.26l0.388,0.26,0.129,0.52,0.259,0.13v0.39H29.15v0.26h0.129v0.39h0.129v0.39h0.129v0.52h0.129v0.651H29.8l-0.129,3.383H29.538V29.5H29.408l-0.129.781H29.15l-0.259.781H28.762l-0.129.521-0.259.13v0.26l-0.388.26v0.26l-0.259.13-0.646.781H26.823l-0.388.521H26.176l-0.129.26-0.776.26-0.129.26-3.491,1.171-2.586.26v0.13h-4.4v-0.13H13.506V36H12.343v-0.13H11.05v-0.13l-5.818.13C4.988,35.894,4.974,36,4.974,36a2.519,2.519,0,0,1-1.81-.26H3.034V34.962l0.259-.13c0.728-.7,3.032.19,3.749-0.52a4.83,4.83,0,0,0,.129-2.082V5.034a4.015,4.015,0,0,1-.259-1.171H6.784l-0.129-.52H6.525V3.082a6.825,6.825,0,0,0-.776-0.52H4.069L2.129,2.3A2.51,2.51,0,0,1,2,1.39a39.912,39.912,0,0,1,6.464-.13h2.327V1.13L15.446,1c2.876,0,5.081-.025,7.111.781l0.776,0.13v0.13l0.517,0.13V2.3l0.776,0.26v0.13l0.388,0.13,0.129,0.26H25.4l0.776,0.911,0.646,0.52a7.307,7.307,0,0,1,1.293,4.294v1.561L27.34,12.711l-0.259.13-0.129.521-0.388.26v0.26l-1.034.911-0.517.651H24.754l-0.259.39H24.237l-0.129.26-0.388.13v0.13H23.461l-0.129.26-0.388.13v0.13H22.686v0.13H22.427l-0.129.26H22.039V17.4C21.681,17.622,21.809,17.273,21.651,17.786ZM118.1,35.613a34.216,34.216,0,0,1-5.43.13,35.143,35.143,0,0,1-5.559-.13V34.832l0.517-.13v-0.13h1.034a6.547,6.547,0,0,0,2.328-.26,11.052,11.052,0,0,0,.129-2.993V4.383h-0.129V3.993h-0.13V3.863A1.385,1.385,0,0,1,110.6,3.6H110.34V3.472l-2.715-.13a1.719,1.719,0,0,0-.388-0.52c0.043-.173.087-0.347,0.13-0.52l4.525-.52L114.736,1l0.129,0.26a4.28,4.28,0,0,1,.129,2.342,42.89,42.89,0,0,0-.129,6.246l-0.129,15.875v0.521h-0.129V32.62h0.129v0.911h0.129l0.129,0.651a1.227,1.227,0,0,1,.259.26h0.258v0.13c0.807,0.307,1.877-.322,2.457.26,0.131,0.1.127,0.16,0.258,0.26ZM74.011,1.13c0.082,1.5,0,3.938,0,5.856a13.851,13.851,0,0,1-.129,3.123L73.623,27.155a1.631,1.631,0,0,0,.646.13,1.009,1.009,0,0,1,.517-0.26v-0.13h0.258l0.129-.26h0.259l0.129-.26h0.258l0.259-.39h0.259l0.259-.39h0.259l0.129-.26,0.388-.13,0.388-.52h0.259l0.517-.651h0.259l0.646-.781H79.7l0.646-.781,0.388-.13,1.034-1.171c1.119-1.126,2.339-1.737,2.327-4.034a1.354,1.354,0,0,1-.258-0.26H83.578v-0.13H81.251a0.294,0.294,0,0,0-.259-0.13,2.053,2.053,0,0,1-.129-0.781h0.129V15.7l0.905-.13V15.7h1.551v0.13h0.776A21.745,21.745,0,0,1,87.2,15.7a1.666,1.666,0,0,1,.9-0.13V15.7l0.388,0.13-0.517,1.041-0.388.26V17.4l-0.388.26v0.26l-0.905.781v0.26l-0.646.52-1.034,1.171H84.354L83.449,21.69H83.191l-0.259.39-0.388.26v0.13H82.286l-0.259.39H81.9l-0.129.26H81.51l-0.388.521-0.388.13-0.517.651-0.517.39c-0.07.249,0.08,0.179,0.129,0.26a2.165,2.165,0,0,0,.517.911l0.259,0.13v0.26l0.646,0.521v0.26L81.9,27.675v0.26l0.646,0.52v0.26l0.388,0.26v0.13l0.259,0.13V29.5l0.776,0.651v0.26l0.517,0.39v0.26L85,31.449v0.26l0.517,0.39v0.26l0.776,0.651v0.26l0.258,0.13,0.388,0.521H87.2l0.388,0.52,0.517,0.13V34.7l1.681,0.13v0.13l0.647,0.13a1.663,1.663,0,0,1,.129.651,0.227,0.227,0,0,0-.129.13A22.029,22.029,0,0,1,88.1,36l-1.034-.13V36a10.271,10.271,0,0,1-2.974-.13l-0.646-.781H83.32v-0.26l-0.388-.26v-0.26l-0.388-.26v-0.26l-0.517-.39V33.14l-0.646-.52V32.36L80.6,31.709l-0.129-.39-0.388-.26V30.8l-0.517-.39v-0.26l-0.517-.39-0.129-.39-0.259-.13v-0.26l-0.388-.26v-0.26L77.89,28.2v-0.26l-0.517-.39c-0.285-.4-0.146-0.57-0.776-0.651a6.053,6.053,0,0,1-1.422.911l-0.129.26-0.517.13-0.129.26H74.141v0.13l-0.388.26v0.26H73.623a29.927,29.927,0,0,0,.259,5.205l0.646,0.13v0.13c0.971,0.312,2.595-.384,3.232.26H77.89v0.39a0.88,0.88,0,0,1,.129.13H77.89l-0.129.39H66.642a1.088,1.088,0,0,1-.259-0.781,1.073,1.073,0,0,1,.776-0.26v-0.13h2.327a0.289,0.289,0,0,1,.259-0.13,8.193,8.193,0,0,0,.129-2.342A4.436,4.436,0,0,0,70,30.148V12.191c0.019-1.549.421-4.085,0-5.6V4.774c-0.1-.324-0.309-0.672-0.388-1.041a0.5,0.5,0,0,1-.388-0.26H67.676l-1.422-.26a1.662,1.662,0,0,1-.129-0.651c0.147-.148.051,0,0.129-0.26a7.044,7.044,0,0,1,2.069-.13c0.375-.322,1.495-0.089,2.069-0.26V1.781l1.293-.13A7.267,7.267,0,0,1,74.011,1.13ZM203.425,2.3l3.1-.26V1.911h0.646V1.781h0.646V1.651h0.518V1.52h0.646V1.39l1.939-.26a2.5,2.5,0,0,1,.129.911h-0.129V2.822a14.169,14.169,0,0,0-.258,3.643q-0.064,4.033-.13,8.068a23.67,23.67,0,0,0,.13,3.643,2.013,2.013,0,0,0,.775.13,1.068,1.068,0,0,1,.517-0.26v-0.13h0.259v-0.13h0.259l0.258-.26h0.259l0.129-.26h0.259l0.258-.26H213.9v-0.13h0.258v-0.13h0.259v-0.13l0.776-.26v-0.13h0.387v-0.13h0.259v-0.13L217,15.7v-0.13h0.775v-0.13h0.776v0.13h1.034V15.7H220.1v0.13h0.388v0.13h0.388v0.13l0.776,0.26v0.13l0.517,0.13,0.258,0.39h0.259l0.517,0.651,1.164,1.041v0.26l0.258,0.13v0.26l0.259,0.13L225.015,20l0.259,0.13,0.129,0.651h0.129c0.043,0.174.087,0.347,0.13,0.52h0.129q0.193,0.846.388,1.692h0.129v0.52h0.129v0.781h0.13v1.3a2.522,2.522,0,0,1,.129,1.171h-0.129v1.171q-0.324,1.171-.647,2.342h-0.129q-0.129.39-.259,0.781H225.4l-0.129.521-0.259.13v0.26l-0.258.13v0.26l-0.388.26v0.26l-0.776.651-0.646.781h-0.259q-0.129.2-.259,0.39l-0.517.13-0.129.26h-0.258v0.13h-0.259v0.13h-0.388v0.13H220.62v0.13h-0.388v0.13h-0.388v0.13h-0.388V36H218.81v0.13a16.191,16.191,0,0,1-3.879.13v-0.13h-0.776V36h-0.517v-0.13h-0.517v-0.13H212.6v-0.13h-0.388v-0.13h-0.388a7.246,7.246,0,0,0-2.844-.911l-0.776,1.041c-0.393.861,0.159,1.68-1.163,1.692a13.1,13.1,0,0,1-.13-3.643,4.437,4.437,0,0,0,.13-1.952V12.321a51.475,51.475,0,0,0-.259-8.2l-0.388-.26V3.733H206.14V3.6h-1.164V3.472c-0.511-.146-1.219.166-1.551-0.13H203.3V2.561C203.443,2.413,203.347,2.561,203.425,2.3ZM191.789,31.839l0.129,0.521h-0.129l-0.129.651h-0.129v0.26l-0.259.13-0.388,1.171h-0.129v0.26h-0.129v0.39H190.5a1,1,0,0,1-.258.651V36H184.42a2.87,2.87,0,0,0-1.422-.13h-3.62c-4.773,0-10.126.087-14.48,0a1.147,1.147,0,0,1-.259-0.911,1.417,1.417,0,0,1,1.035-.39c0.859-.712,3,0.772,3.1-1.041,0.3-.346.129-1.617,0.129-2.212V25.333L169.035,13.1c0-1.7.268-4.305-.129-5.725V5.164h-0.129V4.253h-0.13V3.733h-0.129V3.472h-0.129V3.212L168,2.952V2.822h-2.715V2.692l-0.647-.13a1.679,1.679,0,0,1-.129-0.651c0.147-.148.052,0,0.129-0.26,0.261-.048.259-0.13,0.259-0.13h0.646V1.39a2.674,2.674,0,0,1,1.164.13h9.308l2.328-.13V1.52h1.292a2.494,2.494,0,0,1,.13.911l-0.388.13a3.836,3.836,0,0,1-2.069.26,15.9,15.9,0,0,0-3.232.39,2.461,2.461,0,0,1-.388.39V23.641c-0.269.3-.129,2.245-0.129,2.863q0.129,2.862.259,5.725h0.129v0.52a2.444,2.444,0,0,0,.905,1.431c0.486,0.494,3.717.26,4.783,0.26a24.748,24.748,0,0,0,7.37-.781l1.034-.13L190.5,32.49V32.36h0.259V32.23A3.411,3.411,0,0,1,191.789,31.839ZM12.214,2.952A32.238,32.238,0,0,0,12.084,7.9v8.978l0.388,0.13a3.963,3.963,0,0,0,1.81.13l4.4,0.13V17.4c0.451,0.127.971,0,1.293,0.13V17.4A6.982,6.982,0,0,0,23.2,13.362l0.129-1.952h0.129L23.332,9.328H23.2V8.807H23.073L22.944,7.9H22.815V7.636H22.686V7.246H22.556l-0.129-.52H22.3L22.168,6.2l-0.258-.13V5.815l-0.259-.13V5.424l-0.388-.26V4.9l-0.517-.39-0.517-.651H19.971L19.841,3.6H19.583a5.412,5.412,0,0,0-3.749-1.171h-2.2v0.13H12.989v0.13H12.6v0.13ZM199.158,6.6a5.16,5.16,0,0,1,1.164.13,1.515,1.515,0,0,1,.258.52h0.13a3.528,3.528,0,0,1-.259,1.692h-0.129V9.2h-0.129v0.26h-0.13a0.97,0.97,0,0,1-.646.52,1.238,1.238,0,0,1-1.81-.52h-0.129V8.547h0.129V8.157h0.129q0.065-.26.13-0.52l0.646-.52,0.129-.26A1.279,1.279,0,0,0,199.158,6.6ZM39.492,15.183h2.456v0.13l1.034,0.13v0.13l0.776,0.13v0.13l0.646,0.13v0.13l0.517,0.13v0.13l0.517,0.13v0.13l0.388,0.13,0.129,0.26h0.259l0.129,0.26H46.6l0.259,0.39H47.12l0.646,0.781,0.646,0.521v0.26l0.517,0.39v0.26a3.219,3.219,0,0,1,.9,1.692l-0.388.13v0.13l-0.905.13v0.13H47.9v0.13H47.379v0.13H46.732v0.13H46.086c-1.32.414-3.031,0.513-4.4,0.911H40.656v0.13H39.622v0.13H38.458v0.13H37.036V23.9H35.614v0.13H35.355l-0.129.39a3.515,3.515,0,0,0-.129,1.692l0.388,2.342h0.129v0.39h0.129v0.26h0.129L36,29.757l0.259,0.13,0.129,0.521,0.259,0.13V30.8l0.517,0.39L37.941,32.1H38.2l0.129,0.26h0.259l0.129,0.26,0.517,0.13v0.13l0.776,0.26v0.13H40.4V33.4h0.388v0.13H41.3v0.13H41.82v0.13H42.6v0.13a9.143,9.143,0,0,0,2.974-.13h0.9l3.1-1.041a1.523,1.523,0,0,1,.258.52H49.706a4.731,4.731,0,0,1-1.681,1.171c-1.893,1.258-5.616,2.892-8.921,1.822l-1.034-.13a9.477,9.477,0,0,1-5.947-5.6V30.017H31.994v-0.39H31.865V28.976H31.735V28.2H31.606a15.256,15.256,0,0,1,.129-3.774V23.641c0.894-3,1.733-5.014,4.008-6.636L36,16.615H36.26l0.129-.26,2.069-.911A3.482,3.482,0,0,0,39.492,15.183Zm57.4,0h2.456v0.13l1.034,0.13v0.13l0.776,0.13v0.13l0.646,0.13v0.13l0.518,0.13v0.13h0.258l0.129,0.26,0.517,0.13v0.13l0.388,0.13,0.13,0.26h0.258l0.388,0.521h0.259l0.775,0.911,0.259,0.13v0.26l0.517,0.39v0.26L106.591,20a4.216,4.216,0,0,1,.646,1.561l-0.388.13a2.592,2.592,0,0,1-1.034.26v0.13H105.3v0.13h-0.517v0.13h-0.647v0.13h-0.646c-1.634.513-3.728,0.548-5.43,1.041H97.024v0.13H95.86v0.13H94.438V23.9H93.016v0.13H92.758l-0.129.39a3.249,3.249,0,0,0-.129,1.561,7.574,7.574,0,0,0,.9,3.513l0.129,0.52,0.259,0.13v0.26l0.258,0.13V30.8l0.517,0.39L95.343,32.1H95.6l0.259,0.39,0.517,0.13v0.13h0.259v0.13l0.776,0.26v0.13l1.164,0.26v0.13L100,33.791a9.154,9.154,0,0,0,2.974.13v-0.13h0.776v-0.13h0.646v-0.13h0.517a8.377,8.377,0,0,1,2.069-.781,1.66,1.66,0,0,1,.129.651l-0.517.26-0.129.26H106.2l-0.129.26h-0.259l-0.129.26-0.517.13c-0.043.087-.086,0.173-0.13,0.26l-0.517.13v0.13l-0.775.26v0.13h-0.388v0.13H103.1v0.13h-0.388v0.13h-0.387V36h-0.388v0.13h-0.388v0.13l-1.164.13v0.13H99.222a10.3,10.3,0,0,1-4.137-.651l-1.551-.52-0.129-.26-0.517-.13-0.259-.39H92.37l-0.517-.651a8.422,8.422,0,0,1-2.586-4.164V29.107H89.138V28.456H89.008V27.025H88.879q0.064-1.366.129-2.733h0.129V23.511l0.905-2.863h0.129v-0.26l0.259-.13,0.258-.781,0.259-.13v-0.26l1.939-2.082h0.259l0.259-.39h0.259l0.129-.26,2.069-.911A3.479,3.479,0,0,0,96.895,15.183Zm24.176,8.848a3.613,3.613,0,0,0-.259,1.822h0.129v1.3h0.13v0.651H121.2v0.521h0.129v0.39h0.13v0.39h0.129v0.26h0.129l0.259,0.781,0.258,0.13v0.26l0.388,0.26v0.26l0.259,0.13,0.517,0.651h0.258l0.388,0.521,0.517,0.13,0.13,0.26h0.258v0.13l0.517,0.13v0.13h0.388v0.13h0.259V33.4l0.905,0.13v0.13h0.517a10.843,10.843,0,0,0,3.749.26v-0.13l1.552-.13v-0.13h0.387V33.4h0.388v-0.13H134V33.14h0.388a1.91,1.91,0,0,1,.905-0.39,1.534,1.534,0,0,1,.259.52h-0.13A3.553,3.553,0,0,1,134,34.312l-0.129.26-0.517.13v0.13h-0.259v0.13l-0.517.13a10.023,10.023,0,0,1-5.042,1.431h-1.81v-0.13l-1.422-.13v-0.13h-0.388V36h-0.388v-0.13h-0.388v-0.13h-0.388v-0.13h-0.258v-0.13l-0.776-.26-0.129-.26h-0.259a9.96,9.96,0,0,1-1.422-1.3l-0.517-.39V33.01L119,32.75V32.49l-0.258-.13c-0.043-.173-0.087-0.347-0.13-0.521h-0.129q-0.129-.39-0.259-0.781H118.1l-0.258-1.171h-0.13v-0.52H117.58V28.846h-0.129q-0.064-2.017-.13-4.034,0.388-1.691.776-3.383h0.129q0.066-.26.13-0.521h0.129v-0.26h0.129v-0.26h0.13v-0.26l0.258-.26v-0.26l0.259-.13v-0.26l0.258-.13v-0.26l0.517-.39v-0.26l0.776-.651,0.129-.26H121.2l0.388-.52h0.258c0.044-.087.087-0.174,0.13-0.26h0.258c0.043-.087.086-0.174,0.13-0.26l1.163-.39V15.7h0.259v-0.13l0.905-.13c3.061-1.022,6.3.838,8.015,2.082l1.035,1.171a10.037,10.037,0,0,1,1.292,1.431v0.26l0.259,0.13a1.968,1.968,0,0,1,.259,1.041l-0.388.13a9.252,9.252,0,0,1-2.069.651h-0.517v0.13h-0.646c-1.644.516-3.723,0.547-5.43,1.041h-1.035v0.13h-1.292v0.13h-1.423V23.9h-1.422v0.13h-0.258Zm83.517,11.581c-0.274.05-.81,0.2-1.034,0.26a1.893,1.893,0,0,1-.905-0.13h-7.111l-1.551.13v-0.13h-0.646a1.14,1.14,0,0,1-.259-0.911c0.787-.412,2.429-0.27,3.62-0.26,0.529-1.039.259-3.331,0.259-4.814V18.7q-0.26-.781-0.518-1.561c-0.411-.59-2.291-0.383-3.1-0.521a2.047,2.047,0,0,1-.13-0.781h0.13V15.7h0.646v-0.13h4.784v-0.13h0.775v-0.13c0.392-.114.72,0.007,1.034-0.13v0.13c0.28,0.185.26,0.308,0.259,0.781h0.129v0.911a18.042,18.042,0,0,0-.129,3.9L200.71,32.23h0.129v1.041h0.129c0.043,0.26.087,0.52,0.13,0.781a2.747,2.747,0,0,1,.387.39h2.069v0.13h0.776A1.686,1.686,0,0,1,204.588,35.613ZM58.239,18.306a2.943,2.943,0,0,0,1.293-.52l0.259-.39h0.259l0.129-.26h0.258l0.129-.26,0.388-.13v-0.13h0.258v-0.13l0.776-.26v-0.13l0.776-.13v-0.13h0.517V15.7h0.776v0.13h0.517v0.13h0.259v0.13H65.22v0.13h0.258l0.129,0.26h0.259L66.9,17.656a3.638,3.638,0,0,1-.517,2.082v0.39H66.254a2,2,0,0,1-.258.651H65.479a6.46,6.46,0,0,0-2.068-1.822H62.893a4.167,4.167,0,0,0-4.4,1.3,6.255,6.255,0,0,0-.259,2.733v5.855c0,1.45-.339,4.947.517,5.465,0.527,0.507,2.669.151,3.491,0.39h0.905v0.13h0.129v0.781a12.377,12.377,0,0,1-3.491.13c-0.426-.378-1.893-0.07-2.586-0.13-0.242-.021-0.259-0.13-0.259-0.13a3.659,3.659,0,0,0-1.422.13l-4.266.13a2.508,2.508,0,0,1-.129-0.911,0.227,0.227,0,0,0,.129-0.13l2.974-.13c0.542-1.066.259-3.43,0.259-4.945V18.176H54.36V17.526a2.833,2.833,0,0,1-.646-0.521L51,16.875A2.962,2.962,0,0,1,51,15.7l1.551-.13a15.643,15.643,0,0,0,3.879.13,6.365,6.365,0,0,1,1.551-.26A6.967,6.967,0,0,1,58.239,18.306ZM260.956,33.921v0.39l-1.293,1.171-0.129.26h-0.259l-0.258.39h-0.259v0.13a1.513,1.513,0,0,0-.387.26,3.669,3.669,0,0,1-1.81-.52l-0.388-.521h-0.259l-0.646-.781-0.259-.13v-0.26l-0.388-.26v-0.26l-0.388-.26c-0.3-.43-0.079-0.549-0.775-0.651a2.7,2.7,0,0,1-.905.651l-0.259.39h-0.258q-0.13.2-.259,0.39h-0.259l-0.129.26h-0.258l-0.13.26-0.517.13-0.129.26H250.1v0.13l-0.517.13v0.13h-0.388v0.13h-0.258v0.13l-0.776.13v0.13H247.64a4.04,4.04,0,0,1-1.939.26v-0.13l-1.164-.13V36l-0.776-.26L242.986,34.7v-0.39h-0.13l-0.129-1.952h0.129V31.449h0.13v-0.52h0.129v-0.39h0.129v-0.26h0.13v-0.39l0.258-.13,0.129-.521,0.388-.26v-0.26l0.517-.39,0.776-.911H245.7l0.129-.26,0.388-.13v-0.13l0.775-.26V26.5h0.259v-0.13l0.776-.26v-0.13h0.388v-0.13h0.258v-0.13l0.776-.13v-0.13h0.388v-0.13h0.388V25.2h0.387v-0.13H251v-0.13h0.388v-0.13l0.905-.13v-0.13l0.905-.13,0.129-.26,0.259-.13V19.478q-0.193-.586-0.388-1.171H253.07l-0.517-.651a1.2,1.2,0,0,1-.517-0.26,10.04,10.04,0,0,0-3.1,0h-0.776a16.62,16.62,0,0,1-1.551.651c0.045,1.555-.549,3.75-1.681,4.034v0.13H244.02a1.815,1.815,0,0,1-.388-1.431h0.129c0.043-.26.087-0.521,0.13-0.781h0.129l0.129-.52h0.13v-0.26l0.258-.13v-0.26l0.388-.26v-0.26l0.905-.781,0.129-.26h0.259l0.258-.39h0.259l0.129-.26h0.259v-0.13l0.775-.26v-0.13l1.164-.26V15.7l1.681-.13v-0.13a2.836,2.836,0,0,1,1.293.13H253.2V15.7h0.517v0.13l1.164,0.26,1.551,1.171v0.26l0.259,0.13,0.129,0.521h0.129v0.26h0.13a10.362,10.362,0,0,1,.129,3.123v6.9a9.858,9.858,0,0,0,.129,2.993h0.13l0.258,0.781,0.259,0.13A6,6,0,0,0,260.956,33.921Zm-118.3-16.786-0.129.52H142.4a2.257,2.257,0,0,0,.129,1.171l0.258,1.3h0.13l0.129,0.52h0.129v0.39h0.13V21.3h0.129l0.129,0.521H143.7v0.39h0.13v0.26h0.129l0.129,0.52h0.13v0.39h0.129l0.129,0.52H144.6v0.39h0.13l0.129,0.52h0.129V25.2h0.13l0.129,0.52h0.129v0.39h0.129v0.26h0.13l0.129,0.651h0.129v0.39h0.13v0.26h0.129v0.39h0.129v0.26h0.129v0.39h0.13v0.26h0.129v0.39H146.8l0.259,0.781h0.129v0.26h0.129a1.115,1.115,0,0,1,.259.52h0.388V30.8h0.129v-0.13h0.129v-0.26h0.13v-0.26h0.129v-0.26h0.129V29.5h0.13v-0.39h0.129v-0.26H149v-0.39h0.129c0.043-.26.087-0.52,0.13-0.781h0.129v-0.39h0.129v-0.39h0.13V26.5h0.129v-0.39H149.9v-0.39h0.129c0.043-.26.087-0.52,0.13-0.781h0.129l0.129-.781h0.13l0.258-1.171h0.129V22.6h0.13V22.21h0.129V21.82h0.129v-0.39h0.129v-0.39h0.13l0.258-1.3h0.13V19.217H152.1V17.265a1.253,1.253,0,0,1-.259-0.26h-0.258v-0.13c-0.791-.3-2.1.32-2.715-0.26h-0.129V15.964c0.147-.148.051,0,0.129-0.26h0.517v-0.13l3.491,0.13h1.81v-0.13h2.327a2.518,2.518,0,0,1,.129.911,7.456,7.456,0,0,1-1.681.52q-0.194.325-.388,0.651h-0.129v0.26l-0.258.26v0.26h-0.13V18.7l-0.258.13q-0.065.325-.13,0.651h-0.129v0.26h-0.129V20H153.78q-0.13.39-.259,0.781h-0.129v0.39h-0.13l-0.129.52H153v0.39h-0.129c-0.043.174-.087,0.347-0.13,0.521h-0.129v0.39h-0.129v0.26h-0.13v0.39h-0.129l-0.129.52H151.97v0.39h-0.13v0.26h-0.129l-0.129.651h-0.13v0.39h-0.129v0.26h-0.129V26.5h-0.129v0.26h-0.13v0.39c-2.085,4.65-3.863,9.662-6.205,14.053v0.26H144.6v0.26h-0.129v0.26h-0.129v0.26h-0.129v0.26h-0.13l-0.258.781H143.7l-0.258.781h-0.129c-0.043.173-.087,0.347-0.13,0.52h-0.129l-0.129.52h-0.13v0.26h-0.129v0.26h-0.129v0.26H142.4v0.26h-0.13v0.26h-0.129v0.26h-0.129v0.26h-0.13v0.26h-0.129v0.26h-0.129v0.26H141.5l-0.13.26H141.11c-0.043.087-.086,0.173-0.13,0.26h-0.517a3.635,3.635,0,0,1-1.422.26c-0.681.2-2.758,0.993-3.49,0.26h-0.13v-0.39l1.422-.52v-0.13H137.1v-0.13h0.259l0.129-.26,0.517-.13,0.388-.521h0.258l0.388-.52h0.129v-0.26l0.518-.39v-0.26l0.387-.26v-0.26l0.518-.39v-0.26l0.258-.13V43.68l0.388-.26,0.129-.39,0.259-.13v-0.26l0.258-.13v-0.26l0.388-.26v-0.26l0.259-.13,0.129-.39h0.129v-0.26l0.259-.13v-0.26l0.259-.13v-0.26l0.258-.13v-0.26l0.259-.13,0.129-.521,0.259-.13,0.129-.52,0.258-.13v-0.26l0.259-.26v-0.26h0.129V37.3a1.744,1.744,0,0,0,.388-1.3h-0.129v-0.39h-0.129v-0.26h-0.13l-0.129-.781H144.73q-0.064-.325-0.13-0.651h-0.129l-0.129-.521h-0.129V33.01h-0.13V32.75h-0.129l-0.129-.651H143.7v-0.39h-0.129l-0.129-.52h-0.129V30.8h-0.13l-0.129-.521H142.92q-0.064-.325-0.13-0.651h-0.129v-0.39h-0.129l-0.129-.52h-0.13v-0.39h-0.129l-0.129-.521h-0.13v-0.39h-0.129l-0.129-.52H141.5V26.5h-0.13l-0.129-.521H141.11v-0.39h-0.13l-0.129-.52h-0.129v-0.39h-0.129v-0.26h-0.13v-0.39h-0.129l-0.129-.521h-0.13v-0.39h-0.129l-0.129-.52h-0.129V22.21h-0.13l-0.129-.521H139.3V21.3h-0.13l-0.129-.52h-0.129v-0.39h-0.129c-0.043-.174-0.087-0.347-0.13-0.521h-0.129v-0.39H138.4l-0.129-.52h-0.13V18.7h-0.129v-0.26h-0.129v-0.26l-0.259-.26v-0.26l-0.258-.13c-0.044-.13-0.087-0.26-0.13-0.39h-0.258a2.544,2.544,0,0,0-1.681-.26,1.622,1.622,0,0,1,0-.911l0.388-.13a8.594,8.594,0,0,1,2.715-.13,18.456,18.456,0,0,0,2.973,0h1.81v-0.13l1.681,0.13a1.692,1.692,0,0,1,.259,1.041h-0.13v0.13A10.116,10.116,0,0,0,142.661,17.135Zm91.016,1.171a1.957,1.957,0,0,0,1.164-.39l0.258-.39h0.259l0.129-.26h0.259l0.129-.26h0.259l0.129-.26,0.517-.13,0.129-.26H237.3v-0.13h0.259v-0.13h0.388v-0.13a4.4,4.4,0,0,1,2.2,0v0.13h0.388l1.422,1.041V17.4h0.13a1.582,1.582,0,0,0,.258.39A4.466,4.466,0,0,1,241.693,20l-0.129.651h-0.13a0.438,0.438,0,0,1-.388.26,1.843,1.843,0,0,0-.517-0.39v-0.26l-0.258-.13-0.259-.39h-0.258q-0.13-.2-0.259-0.39l-0.517-.13v-0.13h-0.259v-0.13h-0.646a5.461,5.461,0,0,0-3.232.39c-0.043.087-.086,0.174-0.13,0.26h-0.258l-0.259.26v0.26l-0.258.13a5.986,5.986,0,0,0-.259,1.562h-0.129v6.636c0,1.631-.3,5.281.646,5.856v0.13h0.388v0.13H236l2.586,0.13a4.524,4.524,0,0,1,.129.911,10.945,10.945,0,0,1-3.1.13c-0.5-.441-1.85.074-2.585-0.13v-0.13H230.7v0.13l-4.008.13a2.5,2.5,0,0,1-.129-0.911H226.7V34.7c0.871-.039,1.93-0.127,2.973-0.13,0.543-1.066.259-3.43,0.259-4.945V18.176c-0.293-.328-0.057-0.605-0.517-0.911-0.578-.558-2.313.076-2.844-0.39h-0.13V15.834a12.856,12.856,0,0,1,3.62-.13,1.8,1.8,0,0,0,1.164.13,9.279,9.279,0,0,1,2.327-.26,6.658,6.658,0,0,1,.129,1.952h-0.129Zm35.166,0h0.517a3.266,3.266,0,0,1,1.163-.781l0.129-.26h0.259l0.129-.26H271.3l0.129-.26,0.517-.13,0.13-.26,0.646-.13v-0.13h0.259v-0.13H273.5v-0.13a4.624,4.624,0,0,1,1.81.13v0.13h0.258v0.13l0.776,0.26q0.129,0.2.259,0.39h0.258l0.259,0.26V17.4l0.258,0.13q0.065,0.455.13,0.911h-0.13l-0.129.911h-0.129v0.39h-0.13V20h-0.129c-0.153.292-.259,0.628-0.388,0.911-0.26-.075-0.112.016-0.258-0.13a5.144,5.144,0,0,1-1.422-1.171c-0.044-.087-0.087-0.174-0.13-0.26l-1.422-.521a3.115,3.115,0,0,0-1.422.13H271.04v0.13h-0.517l-1.163.781c-0.725,1-.647,2.679-0.647,4.424,0,3.232-.262,7.081.259,9.889l0.388,0.13v0.13h0.388v0.13h1.292l2.586,0.13a1.087,1.087,0,0,1,.259.781c-0.148.148-.052,0-0.13,0.26l-7.886-.26v0.13l-4.008.13a2.518,2.518,0,0,1-.129-0.911h0.129V34.7c0.84-.076,1.949-0.129,2.974-0.13,0.542-1.066.258-3.43,0.258-4.945V18.306h-0.129V17.656c0-.012-0.081.024-0.129-0.26l-0.388-.13v-0.13h-0.259v-0.13c-0.841-.309-2.316.49-2.585-0.39h-0.13a1.5,1.5,0,0,1,.259-0.911h3.491a1.8,1.8,0,0,0,1.163.13,9.291,9.291,0,0,1,2.327-.26,5.636,5.636,0,0,1,.13,1.692A1.155,1.155,0,0,0,268.843,18.306Zm15.514,29.538-0.388.13V48.1h-0.388v0.13l-1.422.13c-0.531.163-2.229,0.868-2.974,0.651v-0.13l-0.775-.13c-0.044-.13-0.087-0.26-0.13-0.39a16.938,16.938,0,0,0,3.232-1.692v-0.13l0.518-.39v-0.26l0.517-.39v-0.26l0.517-.39v-0.26l0.388-.26v-0.26l0.387-.26V43.55l0.388-.26V43.03l0.259-.13v-0.26l0.388-.26v-0.26l0.258-.13c0.043-.13.087-0.26,0.13-0.39h0.129v-0.26l0.388-.26v-0.26l0.258-.13v-0.26l0.259-.13,0.129-.52,0.259-.13,0.129-.39h0.129q0.065-.26.13-0.521l0.258-.13v-0.26l0.259-.26v-0.26h0.129v-0.26h0.129V37.3a1.779,1.779,0,0,0,.388-1.431h-0.129v-0.39h-0.129v-0.26h-0.13v-0.39h-0.129v-0.26h-0.129q-0.065-.325-0.13-0.651H287.33v-0.39H287.2v-0.26h-0.129V32.88h-0.13V32.62h-0.129V32.23h-0.129q-0.065-.26-0.13-0.521h-0.129v-0.39H286.3l-0.129-.52h-0.13l-0.129-.651h-0.129v-0.39h-0.13l-0.129-.521h-0.129v-0.39h-0.129c-0.043-.174-0.087-0.347-0.13-0.52H285v-0.39h-0.129q-0.065-.26-0.13-0.521h-0.129v-0.39h-0.129v-0.26h-0.129v-0.39h-0.13l-0.129-.52h-0.129v-0.39h-0.13l-0.129-.521h-0.129v-0.39h-0.129c-0.043-.173-0.087-0.347-0.13-0.52h-0.129v-0.39h-0.129q-0.065-.26-0.13-0.521h-0.129v-0.39h-0.129l-0.129-.52h-0.13V21.82h-0.129l-0.129-.521H282.03v-0.39H281.9v-0.26h-0.129v-0.39h-0.129c-0.043-.173-0.087-0.347-0.13-0.52h-0.129v-0.39h-0.129v-0.26h-0.129v-0.26H281v-0.26h-0.129v-0.26h-0.129c-0.277-.514-0.272-1-0.905-1.171-0.748-.609-1.659.607-1.681-1.041l0.259-.13a3.4,3.4,0,0,1,2.068-.26c2.1,0.6,5.131-.288,7.369.13a2.494,2.494,0,0,1,.13.911l-0.388.13v0.13h-1.681a0.287,0.287,0,0,1-.259.13l-0.129.39c-0.36.379-.1,1.955,0.129,2.472h0.13v0.26h0.129v0.39h0.129c0.043,0.173.087,0.347,0.13,0.52H286.3v0.39h0.129l0.129,0.52h0.13v0.26h0.129v0.39h0.129q0.065,0.26.13,0.521H287.2v0.39h0.129V23.9h0.129q0.066,0.26.13,0.521h0.129v0.39h0.129v0.26h0.13v0.39h0.129l0.129,0.52h0.129v0.39h0.13v0.26h0.129l0.129,0.651h0.13v0.39h0.129v0.26h0.129v0.39h0.129v0.26h0.13v0.39h0.129v0.26h0.129v0.39h0.13v0.26l0.258,0.13c0.319,0.5.084,0.816,0.9,0.911l0.129-.39h0.13v-0.39h0.129l0.129-.521h0.13v-0.39h0.129l0.129-.781h0.129c0.043-.26.087-0.52,0.13-0.781h0.129v-0.39h0.129v-0.39h0.13V26.5h0.129v-0.39h0.129v-0.39h0.129v-0.39h0.13l0.129-.781h0.129v-0.26h0.13l0.387-1.692h0.13V22.21h0.129V21.82h0.129v-0.39h0.13v-0.39h0.129l0.129-.781H294.7v-0.52h0.13v-0.39h0.129V17.265l-0.259-.13c-0.4-.393-2.3-0.273-2.973-0.39a1.661,1.661,0,0,1-.129-0.651c0.147-.148.051,0,0.129-0.26a12.374,12.374,0,0,1,3.49-.13,2.445,2.445,0,0,0,1.423.13,8.345,8.345,0,0,1,3.232-.13,2.05,2.05,0,0,1,.129.781,1.614,1.614,0,0,0-.259.26h-0.258v0.13h-0.905l-0.129.26-0.518.39v0.26l-0.258.13-0.129.52h-0.13V18.7h-0.129v0.26h-0.129v0.26h-0.13v0.26H296.9l-0.258.781h-0.13v0.39H296.38v0.26h-0.129v0.26h-0.13v0.26h-0.129v0.39h-0.129l-0.129.52H295.6v0.39h-0.129v0.26h-0.129v0.39h-0.13l-0.129.52h-0.129v0.39h-0.129v0.26H294.7l-0.129.651h-0.129v0.39h-0.129q-0.066.26-.13,0.521h-0.129V26.5h-0.129v0.26h-0.13l-0.129.651h-0.129v0.39h-0.129v0.26h-0.13v0.39h-0.129l-0.129.651h-0.13v0.26H292.76v0.39h-0.129l-0.129.52h-0.13v0.39h-0.129v0.26h-0.129v0.39h-0.13l-0.129.651h-0.129v0.26H291.6v0.39h-0.13l-0.129.52h-0.129v0.39h-0.13l-0.129.52h-0.129v0.39h-0.129q-0.066.26-.13,0.52h-0.129v0.39H290.3c-0.043.173-.087,0.347-0.13,0.52h-0.129v0.39h-0.129v0.26h-0.129v0.26h-0.13v0.26h-0.129v0.39H289.4v0.26h-0.13l-0.258.781h-0.129v0.39h-0.13l-0.258.781h-0.13v0.26h-0.129v0.26h-0.129v0.26h-0.129v0.26h-0.13v0.26h-0.129v0.26h-0.129V41.6h-0.13l-0.258.781h-0.129v0.26h-0.13V42.9h-0.129v0.26h-0.129v0.26h-0.13q-0.452,1.041-.9,2.082H285.52v0.26h-0.129v0.26h-0.129v0.26h-0.13v0.26H285V46.8h-0.129q-0.065.26-.13,0.52h-0.129A1.1,1.1,0,0,0,284.357,47.844ZM39.622,16.224v0.13H39.1v0.13l-0.776.26v0.13H38.07l-0.259.39-0.646.521v0.26l-0.388.26-0.129.52a7.514,7.514,0,0,0-1.293,3.9,3.454,3.454,0,0,0,1.164.13c0.365-.305,1.136.028,1.681-0.13,1.49-.432,3.334-0.477,4.784-0.911h0.776V21.69a3.694,3.694,0,0,0,1.422-.26H45.31V20.518A1.014,1.014,0,0,1,45.052,20H44.922v-0.26H44.793l-0.129-.39-0.259-.13v-0.26l-1.034-.911C42.36,17.029,41.68,16.218,39.622,16.224Zm57.4,0v0.13l-0.905.13v0.13H95.86l-0.129.26H95.473l-0.259.39-0.776.651v0.26l-0.259.13-0.129.39H93.921l-0.129.52a7.365,7.365,0,0,0-1.034,3.513,3.453,3.453,0,0,0,1.164.13c0.366-.305,1.136.028,1.681-0.13,1.495-.434,3.323-0.474,4.783-0.911h0.776V21.69a3.694,3.694,0,0,0,1.422-.26h0.129V20.649h-0.129L102.454,20l-0.259-.13v-0.26h-0.129v-0.26l-0.388-.26v-0.26l-0.776-.651C99.872,17.138,99.118,16.22,97.024,16.224Zm24.047,6.506a12.358,12.358,0,0,0,4.654-.39l1.551-.13c1.161-.351,2.649-0.538,3.879-0.781a3.649,3.649,0,0,0-.647-1.952l-0.258-.13v-0.26l-0.517-.39v-0.26l-0.776-.651-0.129-.26h-0.259l-0.388-.521-0.517-.13-0.129-.26h-0.259v-0.13h-0.388v-0.13l-1.551-.13v0.13H124.82v0.13h-0.259v0.13l-0.517.13-0.258.39h-0.259l-0.388.52H123.01v0.26l-0.388.26-0.129.52-0.259.13q-0.193.586-.388,1.171h-0.129v0.26h-0.129v0.39A6.3,6.3,0,0,0,121.071,22.731ZM12.86,18.306v0.13H12.472l-0.129.26H12.214v0.26H12.084V31.579h0.129V32.62h0.129V33.4h0.129L12.6,34.051l0.388,0.26v0.13l0.776,0.26v0.13h0.388v0.13l1.551,0.13v0.13a7.329,7.329,0,0,0,3.1-.26h0.517v-0.13h0.388V34.7h0.259v-0.13h0.388v-0.13h0.259v-0.13h0.259L21,34.051h0.259l0.129-.26h0.259l0.259-.39,0.905-.781V32.36l0.258-.13v-0.26l0.259-.13,0.259-.781H23.72V30.8h0.129v-0.39h0.129v-0.39h0.129V29.367h0.129V28.586h0.129a11.239,11.239,0,0,0-.259-3.643H23.978v-0.52H23.849v-0.26H23.72v-0.39H23.591v-0.26H23.461v-0.26l-0.259-.13-0.129-.52-0.258-.13V22.21l-0.388-.26V21.69l-0.259-.13-0.646-.781H21.263l-0.388-.521H20.617L20.488,20H20.229l-0.129-.26-0.517-.13v-0.13l-0.776-.26v-0.13H18.419v-0.13H18.031v-0.13H17.643V18.7H17.126v-0.13H16.609v-0.13Zm203.493,0c-0.32.271-.936-0.013-1.422,0.13v0.13l-1.293.13v0.13h-0.517v0.13h-0.388v0.13h-0.388v0.13h-0.388v0.13l-0.517.13v0.13a1.212,1.212,0,0,0-.775.52h-0.13V32.62h0.13v0.26h0.129l0.776,0.911,0.517,0.13,0.129,0.26h0.259v0.13h0.387v0.13h0.259v0.13l0.905,0.13a6.377,6.377,0,0,0,3.749.13h0.647V34.7l0.775-.13v-0.13l0.776-.26v-0.13h0.259v-0.13l0.517-.13v-0.13l0.388-.13,0.129-.26h0.259l0.129-.26,0.517-.39V32.36l0.258-.13q0.066-.26.13-0.521h0.129l0.129-.52h0.13a12.4,12.4,0,0,0,.517-5.986V24.552C222.494,21.668,220.12,18.317,216.353,18.306Zm37.1,7.287a4.289,4.289,0,0,0-2.327.39h-0.388v0.13h-0.259v0.13H250.1v0.13h-0.258V26.5H249.45v0.13h-0.259v0.13h-0.258c-0.043.087-.086,0.174-0.13,0.26l-0.517.13-0.129.26H247.9l-0.258.39h-0.259v0.13l-0.388.26v0.26l-0.387.26c-0.043.217-.087,0.434-0.13,0.651h-0.129v0.39h-0.129a5.7,5.7,0,0,0,0,2.6l0.129,0.39h0.129c0.231,0.334-.14.249,0.388,0.39,0.659,0.783,3.3.671,4.137,0.26l0.517-.13c0.044-.087.087-0.173,0.13-0.26h0.258c0.043-.087.086-0.173,0.13-0.26h0.258l0.517-.651,0.259-.13v-0.26l0.258-.13q0.066-.26.13-0.521h0.129V29.5A24.023,24.023,0,0,0,253.458,25.593ZM28.5,41.468h3.878v1.041H29.667v1.822h2.456v1.041H29.667v1.822H32.64a5.191,5.191,0,0,0-.129,1.041H28.5V41.468Zm11.118,6.246a2.489,2.489,0,0,1,.388-1.041c0.909,0.429,1.47.849,2.586,0.39a1.882,1.882,0,0,0,.259-0.911c-0.147-.148-0.051,0-0.129-0.26-0.32-.138-0.627-0.371-0.905-0.521H41.561v-0.13H41.3v-0.13l-0.517-.13-0.776-.911a2.078,2.078,0,0,1,.129-1.431,1.31,1.31,0,0,1,.9-0.911c0.671-.712,2.427,0,2.974.26-0.074.261,0.015,0.113-.129,0.26a2.3,2.3,0,0,1-.259.651,4.316,4.316,0,0,0-2.068-.39,1.6,1.6,0,0,0-.388,1.171l0.776,0.651,1.293,0.39,0.776,0.911a1.755,1.755,0,0,1-.129,1.431,1.31,1.31,0,0,1-.905.911c-0.246.258-.075,0-0.388,0.13v0.13H42.078v0.13C41.27,48.588,40.206,47.854,39.622,47.714Zm24.823-6.246h1.681a8.075,8.075,0,0,0,.9.39l0.517,0.651h0.129v0.26h0.129v0.26h0.129v0.39h0.129c0.589,1.686-.221,4.241-1.422,4.554V48.1H66.254c-0.98.409-1.289,0.118-2.327,0v-0.13l-0.388-.13-0.388-.52H63.022l-0.129-.52H62.764v-0.26H62.634v-0.39H62.505V45.372H62.376V44.331h0.129V43.55h0.129V43.16h0.129l0.129-.52h0.129v-0.26l1.034-.781h0.388v-0.13Zm5.171,0h3.879v1.041H70.779v1.822h2.456v1.041H70.779v2.863H69.616V41.468Zm13.446,5.986a1.1,1.1,0,0,0-.517.26v0.13l-0.517.13V48.1a3.259,3.259,0,0,1-2.715-.13c-1.409-.335-2.046-3.282-1.293-4.945l0.776-1.041h0.259v-0.13a1.685,1.685,0,0,0,.388-0.26l2.069-.13a9.042,9.042,0,0,1,1.422.781,8.1,8.1,0,0,1-.517.781L81.9,42.9l-0.129-.26a3.639,3.639,0,0,0-1.939,0l-0.388.52H79.312a1.16,1.16,0,0,1-.258.521l-0.129,1.561c0.112,0.414.3,1,.388,1.431a1.949,1.949,0,0,0,.647.39,1.483,1.483,0,0,0,1.163.26v-0.13H81.51v-0.13h0.258v-0.13h0.259a1.048,1.048,0,0,1,.517-0.39v0.13A1.2,1.2,0,0,1,83.061,47.454Zm6.594,0.781H88.491V48.1H88.362c-0.053-.629-0.314-0.826-0.388-1.431H85.259l-0.517,1.562H83.708a7.127,7.127,0,0,1,.776-2.212v-0.39h0.129v-0.39h0.129v-0.39h0.129v-0.39H85V44.2H85.13l0.129-.781a6.786,6.786,0,0,0,.646-1.822,4.327,4.327,0,0,0,1.422-.13v0.26h0.129l0.129,0.781h0.129V42.9h0.129v0.26h0.129v0.39H88.1v0.39h0.129l0.259,1.171H88.62v0.26H88.75v0.39h0.129l0.258,1.171h0.129v0.26H89.4A5.819,5.819,0,0,1,89.655,48.235Zm8.662-6.766h3.749a2.72,2.72,0,0,1,.129,1.041H99.48v1.822h2.457v0.911a8.532,8.532,0,0,1-2.457.13v2.863H98.317V41.468Zm6.593,0c1.412-.047,2.84.118,3.1,1.171,0.981,0.833.638,3.736,0,4.684h-0.129l-0.388.52h-0.259v0.13a1.025,1.025,0,0,0-.517.26l-1.422.13-1.164-.39-0.646-.781h-0.129q-0.064-.26-0.13-0.521H103.1a5.919,5.919,0,0,1,.259-4.164l0.905-.781,0.646-.13v-0.13ZM6.266,41.6H7.43v3.643L7.559,46.8l0.388,0.26a1.551,1.551,0,0,0,1.164.26,1.21,1.21,0,0,0,.646-0.651,2.9,2.9,0,0,0,.129-1.431V41.6h1.293c0.044,2.111.43,5.961-1.164,6.376a2.5,2.5,0,0,1-2.327.13,1.483,1.483,0,0,1-1.164-1.041,2.657,2.657,0,0,1-.259-1.692V41.6Zm6.464,0h1.163l0.129,0.39,0.259,0.13v0.26l0.259,0.13,0.129,0.52,0.259,0.13v0.26l0.259,0.13v0.26h0.129v0.26l0.258,0.13,0.129,0.52,0.259,0.13a2.618,2.618,0,0,1,.388.911H16.48V41.6h1.293V48.1a3.457,3.457,0,0,1-1.164.13l-2.586-4.294H13.894v4.294H12.731V41.6Zm6.594,0h1.163v6.636H19.324V41.6Zm2.327,0h1.164a0.227,0.227,0,0,0,.129.13,6.48,6.48,0,0,0,.646,1.952c0.388,0.981.52,2.032,0.905,2.993h0.129a3.188,3.188,0,0,1,.388-1.3v-0.39h0.129v-0.39h0.129V44.2H25.4V43.81H25.53V43.42h0.129V43.03a5.436,5.436,0,0,0,.517-1.431H27.34l-2.2,6.636H23.849a0.227,0.227,0,0,0-.129-0.13,5.013,5.013,0,0,0-.517-1.562l-0.259-1.171H22.815v-0.26H22.686l-0.259-1.171A9.487,9.487,0,0,1,21.651,41.6Zm12.411,0h2.974v0.13l0.646,0.13c0.241,0.4.948,1.086,0.776,1.822H38.329v0.651H38.2a1.31,1.31,0,0,1-.9.911l1.551,2.993H37.553a13.437,13.437,0,0,0-1.422-2.6H35.226v2.6H34.063V41.6Zm11.377,0H46.6v6.636H45.44V41.6Zm2.456,0H52.55l-0.129,1.041H50.74v5.6H49.577v-5.6H47.9V41.6Zm5.43,0h1.293c0.2,1.024.937,1.663,1.164,2.733a0.227,0.227,0,0,0,.129-0.13,3.238,3.238,0,0,0,.517-1.041h0.129V42.9a4.763,4.763,0,0,0,.646-1.3H58.5a2.687,2.687,0,0,1-.517.911l-0.129.52H57.722l-0.129.52-0.259.13v0.26l-0.258.26v0.26H56.946v0.26l-0.259.13v0.26H56.558V48.1a3.974,3.974,0,0,1-1.293.13V45.242H55.136v-0.26H55.007v-0.26H54.877v-0.26l-0.259-.26v-0.26l-0.259-.13V43.55H54.231V43.29l-0.259-.26v-0.26l-0.258-.13v-0.26H53.584Zm37.234,0h1.163v5.6h2.844a4.483,4.483,0,0,1-.129,1.041H90.56V41.6Zm5.042,0h1.293V48.1a3.974,3.974,0,0,1-1.293.13V41.6Zm13.962,0h2.974v0.13l0.646,0.13,0.647,0.911c0.043,1.27-.073,2.232-1.034,2.472a3.435,3.435,0,0,0,.517.911l0.129,0.52h0.129q0.064,0.26.13,0.521l0.258,0.13v0.26h0.129c0.043,0.217.087,0.434,0.13,0.651h-1.164a13.454,13.454,0,0,0-1.422-2.6h-0.905v2.6h-1.164V41.6Zm6.852,0c0.044,0.13.087,0.26,0.13,0.39h0.129v0.26H116.8v0.26l0.259,0.13V42.9l0.258,0.13v0.26h0.13v0.26l0.258,0.13c0.043,0.173.087,0.347,0.13,0.52l0.258,0.13v0.26l0.259,0.13,0.129,0.52,0.259,0.13,0.129,0.39H119V41.6h1.164v6.636h-1.035a1.191,1.191,0,0,0-.258-0.26v-0.26l-0.259-.13-0.129-.521-0.259-.13v-0.26l-0.258-.13-0.129-.39h-0.13l-0.129-.52-0.259-.13v-0.26l-0.258-.13-0.129-.52-0.259-.13-0.129-.39h-0.13V48.1a3.969,3.969,0,0,1-1.292.13V41.729A3.969,3.969,0,0,1,116.416,41.6Zm5.172,0h1.163v6.636h-1.163V41.6Zm5.818,0,2.2,6.636H128.44q-0.258-.781-0.517-1.562h-2.715q-0.26.781-.517,1.562h-1.035a2.838,2.838,0,0,1,.388-1.041q0.129-.585.259-1.171h0.129v-0.26h0.129c0.043-.26.087-0.521,0.13-0.781h0.129l0.129-.781h0.13v-0.26h0.129V43.55h0.129V43.16l0.647-1.561h1.422Zm-62.7.911v0.13H64.444l-0.259.39H64.056c-0.337.506-.677,2.676-0.129,3.253a0.739,0.739,0,0,0,.388.52l0.258,0.39h0.388a1.775,1.775,0,0,0,1.293-.13,7.176,7.176,0,0,0,.647-1.171,6.327,6.327,0,0,0-.259-2.733l-0.776-.651H64.7Zm40.466,0a2.118,2.118,0,0,0-.776.911,5.173,5.173,0,0,0-.259,2.6h0.13v0.26h0.129c0.228,0.431.113,0.645,0.646,0.781a1.365,1.365,0,0,0,1.035.26v-0.13h0.388l0.517-.651a4.183,4.183,0,0,0,.388-2.6,8.255,8.255,0,0,1-.388-0.911,2.847,2.847,0,0,1-.647-0.52h-1.163Zm-69.943.13v1.952a3.836,3.836,0,0,0,1.681-.26,2.667,2.667,0,0,0,.259-1.3,0.871,0.871,0,0,1-.388-0.39H35.226Zm75.5,0v1.952a3.837,3.837,0,0,0,1.681-.26,2.676,2.676,0,0,0,.258-1.3,0.871,0.871,0,0,1-.388-0.39h-1.551ZM85.647,45.762h1.939a5.094,5.094,0,0,0-.259-1.041H87.2v-0.26H87.069v-0.39H86.94V43.68H86.81L86.681,42.9H86.552v0.13H86.423Zm39.949,0h1.939q-0.453-1.431-.905-2.863c-0.147.148-.052,0-0.129,0.26h-0.13Q125.984,44.461,125.6,45.762Z"/>
  </g>
</svg>
